<?xml version="1.0" standalone="no"?>
<!DOCTYPE svg PUBLIC "-//W3C//DTD SVG 20010904//EN"
 "http://www.w3.org/TR/2001/REC-SVG-20010904/DTD/svg10.dtd">
<svg version="1.0" xmlns="http://www.w3.org/2000/svg"
 width="2998.000000pt" height="2000.000000pt" viewBox="0 0 2998.000000 2000.000000"
 preserveAspectRatio="xMidYMid meet">
<metadata>
Created by potrace 1.16, written by Peter Selinger 2001-2019
</metadata>
<g transform="translate(0.000000,2000.000000) scale(0.100000,-0.100000)"
fill="#000000" stroke="none">
<path d="M0 10000 l0 -10000 4545 0 4545 0 0 40 c0 36 -2 40 -25 40 -16 0 -25
-6 -25 -15 0 -11 -11 -15 -40 -15 -29 0 -40 4 -40 15 0 8 5 15 10 15 6 0 10
18 10 40 0 22 -4 40 -9 40 -6 0 -12 17 -14 37 -3 23 -3 18 -2 -11 4 -74 -2
-86 -40 -86 -18 0 -36 -6 -39 -12 -3 -7 -3 24 0 69 l6 83 -31 0 c-30 0 -31 2
-31 40 0 22 -4 40 -10 40 -5 0 -10 18 -10 40 0 33 -3 40 -20 40 -11 0 -20 6
-20 14 0 14 -42 26 -91 26 -16 0 -29 5 -29 10 0 6 19 10 43 10 24 0 46 3 50 6
9 9 -19 34 -38 34 -8 0 -18 7 -21 15 -8 19 -34 19 -34 0 0 -8 7 -15 15 -15 21
0 19 -17 -2 -22 -32 -8 -43 3 -43 42 0 21 -6 41 -12 43 -9 4 -4 14 15 31 31
29 36 66 9 66 -26 0 -42 20 -42 52 0 27 -2 28 -50 28 -49 0 -50 1 -50 30 0 25
4 30 25 30 23 0 25 4 25 40 0 36 -2 40 -25 40 -20 0 -25 -5 -25 -27 0 -49 -21
-10 -27 51 -4 38 -10 56 -19 56 -11 0 -14 19 -14 80 0 47 -4 80 -10 80 -5 0
-10 12 -10 26 0 22 2 25 15 14 8 -7 15 -19 15 -26 0 -8 5 -14 11 -14 8 0 9 11
5 31 -3 17 -6 35 -6 40 0 5 -16 9 -35 9 -34 0 -35 -1 -35 -40 0 -29 4 -40 15
-40 8 0 15 -7 15 -14 0 -12 -6 -13 -28 -5 -25 9 -27 13 -24 52 3 23 9 45 14
48 12 8 0 159 -13 159 -5 0 -9 18 -9 40 0 29 4 40 15 40 11 0 15 11 15 40 0
30 -4 40 -16 40 -14 0 -15 10 -9 78 4 42 11 78 16 80 5 2 9 21 9 43 l0 39 -44
0 c-43 0 -44 1 -54 40 -8 31 -7 40 3 40 7 0 15 -9 18 -20 11 -43 27 -19 27 40
0 47 3 60 15 60 11 0 15 -11 15 -40 0 -22 5 -40 10 -40 15 0 12 78 -2 83 -9 3
-8 10 6 26 25 28 36 27 36 -4 0 -14 5 -25 10 -25 6 0 10 18 10 40 0 36 -2 40
-25 40 -22 0 -25 4 -25 39 0 22 5 41 12 43 9 3 8 11 -3 29 -12 18 -15 39 -11
77 4 49 6 52 33 52 27 0 29 3 29 40 0 22 5 40 10 40 6 0 10 -18 10 -40 0 -29
4 -40 15 -40 12 0 15 16 15 81 l0 82 -55 -6 -55 -6 0 45 c0 32 4 44 15 44 8 0
15 5 15 10 0 6 18 10 40 10 29 0 40 4 40 15 0 11 -11 15 -40 15 -29 0 -40 4
-40 15 0 8 5 15 10 15 6 0 10 33 10 80 0 71 -10 102 -23 68 -2 -8 -8 -9 -13
-4 -5 5 -4 11 4 13 7 3 12 22 12 44 0 39 0 39 40 39 l40 0 0 95 c0 78 -3 95
-15 95 -8 0 -15 6 -15 14 0 8 -7 22 -16 30 -14 15 -13 16 15 16 17 0 31 5 31
10 0 6 -13 10 -30 10 -16 0 -30 5 -30 10 0 6 14 10 30 10 17 0 30 5 30 10 0 6
-13 10 -29 10 -16 0 -31 6 -35 15 -4 10 -20 15 -51 15 l-45 0 0 70 0 70 -40 0
c-29 0 -40 -4 -40 -15 0 -21 -83 -21 -100 0 -7 8 -23 15 -36 15 -15 0 -24 6
-24 15 0 8 9 15 19 15 26 0 54 29 47 47 -4 9 -1 13 6 10 7 -2 18 3 24 12 10
13 15 13 27 2 14 -11 17 -8 23 23 5 28 11 36 27 36 12 0 30 9 42 19 58 56 78
72 105 86 17 9 37 27 46 40 9 14 25 25 35 25 11 0 19 7 19 15 0 9 10 15 26 15
14 0 23 4 19 9 -3 5 4 12 15 16 11 3 20 11 20 16 0 5 7 9 15 9 8 0 23 8 33 17
33 33 100 83 111 83 6 0 11 4 11 9 0 5 9 13 21 16 12 4 28 14 37 22 36 32 138
102 148 103 6 0 27 12 46 28 20 15 44 33 54 39 11 7 53 36 94 65 41 29 95 66
120 82 25 16 57 37 72 48 15 10 32 18 38 18 5 0 10 4 10 10 0 5 11 12 24 16
14 3 33 15 43 26 9 11 36 28 60 39 23 10 45 24 48 29 4 6 23 19 43 30 47 25
69 39 109 67 17 13 34 23 37 23 2 0 32 18 65 40 33 22 65 40 71 40 6 0 13 6
16 14 3 8 13 17 22 20 9 3 26 11 36 18 86 57 316 198 322 198 5 0 86 52 94 60
6 6 24 17 135 82 50 29 122 73 160 99 39 25 95 60 125 78 30 18 62 36 70 41
24 15 417 253 488 295 10 6 55 33 101 60 85 51 240 142 298 176 18 10 49 29
70 42 43 28 96 59 716 424 247 145 467 274 490 287 250 140 1238 725 1742
1031 171 103 391 237 490 297 98 60 187 116 197 125 48 43 10 87 -163 183 -63
35 -161 90 -219 124 -58 33 -154 87 -215 121 -60 34 -128 72 -150 85 -22 13
-92 52 -155 88 -63 35 -149 84 -190 107 -252 143 -594 337 -645 365 -33 18
-73 41 -90 51 -16 10 -41 24 -55 32 -14 7 -43 24 -65 37 -22 12 -58 33 -80 45
-22 13 -146 84 -275 158 -585 335 -719 411 -769 439 -30 17 -93 53 -139 79
-47 27 -86 49 -88 49 -2 0 -50 28 -106 61 -169 101 -219 117 -253 79 -10 -11
-34 -22 -54 -26 -71 -12 -255 -93 -436 -191 -11 -6 -47 -21 -80 -34 -33 -12
-96 -39 -140 -59 -169 -78 -191 -88 -227 -104 -21 -8 -38 -20 -38 -25 0 -5
-24 -17 -52 -27 -110 -35 -434 -181 -469 -210 -8 -8 -42 -22 -75 -33 -78 -25
-407 -180 -499 -235 -22 -14 -48 -25 -58 -25 -36 -2 -433 -182 -462 -209 -11
-11 -35 -23 -52 -26 -18 -4 -35 -12 -38 -17 -4 -5 -15 -9 -26 -9 -11 0 -61
-20 -112 -44 -270 -128 -354 -170 -371 -185 -10 -9 -21 -15 -25 -14 -9 3 -145
-50 -219 -86 -34 -17 -65 -31 -68 -31 -3 0 -83 -38 -179 -85 -96 -46 -186 -87
-200 -91 -14 -3 -25 -10 -25 -15 0 -5 -6 -9 -14 -9 -8 0 -42 -13 -77 -29 -35
-16 -140 -64 -234 -106 -93 -42 -206 -94 -250 -115 -44 -21 -134 -62 -200 -90
-66 -29 -172 -74 -235 -102 -63 -27 -152 -67 -197 -89 -45 -21 -85 -39 -88
-39 -15 0 -172 -65 -186 -77 -8 -7 -20 -13 -25 -13 -6 0 -29 -9 -52 -20 -22
-11 -47 -20 -54 -20 -7 0 -35 -11 -63 -25 -27 -13 -55 -25 -62 -25 -7 0 -43
-15 -80 -34 -97 -49 -132 -63 -188 -78 -28 -7 -52 -15 -55 -18 -11 -12 -51
-30 -65 -30 -8 0 -15 -4 -15 -10 0 -6 -26 -10 -58 -10 -38 0 -73 -7 -100 -20
-22 -11 -46 -20 -53 -20 -6 0 -30 -8 -53 -19 -43 -19 -100 -40 -127 -46 -9 -2
-33 -13 -55 -24 -21 -12 -47 -21 -56 -21 -10 0 -18 -4 -18 -10 0 -5 -8 -10
-17 -10 -10 0 -31 -7 -48 -16 -31 -16 -34 -17 -125 -34 -30 -6 -59 -15 -64
-20 -6 -6 -20 -10 -33 -10 -13 0 -23 -4 -23 -10 0 -5 -18 -10 -41 -10 -43 0
-52 22 -11 28 19 3 20 5 8 18 -8 8 -19 14 -25 14 -6 0 -11 5 -11 10 0 6 7 10
15 10 29 0 15 17 -25 30 -44 15 -54 30 -15 22 17 -3 27 1 31 13 8 20 -14 37
-38 29 -12 -3 -18 0 -18 10 0 9 -7 16 -15 16 -11 0 -15 11 -15 40 0 29 4 40
15 40 23 0 18 13 -17 45 -26 23 -30 30 -16 33 9 2 23 24 33 54 22 68 62 108
109 108 35 0 36 1 36 39 0 29 5 41 18 45 9 3 -1 3 -23 0 -22 -3 -43 -10 -46
-16 -6 -10 -49 6 -49 18 0 3 5 2 11 -1 11 -8 69 13 69 25 0 4 12 12 26 18 14
7 22 17 19 22 -3 6 3 10 15 10 12 0 18 4 15 10 -3 6 3 10 13 10 11 0 25 7 32
14 6 8 28 20 48 27 20 6 63 27 95 45 32 19 62 34 66 34 5 0 14 7 21 15 7 8 19
15 26 15 8 0 62 23 122 51 153 74 293 139 297 139 1 0 46 20 98 45 53 25 99
45 102 45 3 0 32 12 63 26 31 15 84 39 117 54 33 16 137 62 230 103 94 41 190
84 215 95 25 11 83 37 130 57 47 20 99 43 115 50 17 8 194 86 395 173 201 88
417 183 480 212 63 29 160 71 215 95 55 24 201 89 325 145 124 56 245 111 270
122 25 11 149 68 275 125 127 58 244 111 260 119 135 60 505 228 660 298 105
48 204 93 220 100 17 8 79 37 138 65 60 28 110 51 112 51 3 0 37 15 77 34 141
65 274 125 341 151 39 16 77 39 90 55 31 39 325 170 382 170 51 0 85 33 48 47
-32 12 -54 46 -51 78 3 34 20 44 223 134 117 51 446 201 505 229 26 13 36 26
42 52 5 19 11 323 14 675 6 604 7 643 26 686 11 26 29 51 41 57 29 14 259 74
477 123 437 98 532 119 538 115 10 -6 170 23 222 40 25 8 73 26 108 40 73 29
211 44 287 32 63 -10 94 -4 170 32 33 16 71 31 85 34 32 6 170 54 191 65 8 5
60 21 113 35 54 14 112 32 130 40 17 7 74 23 126 35 52 12 154 42 225 67 115
39 258 78 530 145 158 39 265 34 342 -15 67 -43 70 -59 76 -384 5 -255 3 -307
-13 -407 l-19 -115 23 -43 c36 -68 45 -144 51 -412 2 -137 9 -412 14 -610 6
-198 10 -482 10 -631 1 -244 -1 -279 -20 -355 -12 -46 -25 -86 -29 -89 -4 -3
-15 -22 -25 -43 -17 -36 -91 -106 -145 -136 -49 -28 -162 -71 -172 -65 -5 3
-14 1 -21 -4 -7 -5 -25 -12 -42 -15 -16 -3 -39 -7 -50 -10 -11 -3 -55 -15 -98
-26 -43 -11 -82 -23 -87 -26 -4 -3 -39 -11 -77 -19 -37 -8 -102 -23 -143 -34
-98 -26 -214 -52 -234 -52 -45 0 15 -55 117 -107 39 -19 138 -73 221 -120 83
-47 196 -110 251 -141 55 -31 174 -98 265 -150 91 -52 183 -104 205 -116 22
-12 103 -58 180 -102 77 -44 187 -107 245 -139 58 -32 125 -70 150 -85 25 -15
70 -41 100 -57 237 -130 1105 -627 1194 -684 64 -41 118 -58 139 -41 6 5 23
13 37 17 14 4 39 13 55 20 76 32 272 107 385 148 52 19 167 65 255 102 88 37
171 67 185 67 55 -1 102 -102 119 -254 9 -83 9 -83 107 -192 13 -14 19 -26 13
-26 -14 0 22 -35 44 -43 9 -4 17 -12 17 -19 0 -7 14 -24 30 -37 17 -13 30 -32
30 -42 0 -11 6 -19 14 -19 18 0 30 -30 17 -43 -7 -7 -12 -5 -17 6 -3 9 -15 17
-25 17 -22 0 -24 -11 -7 -28 9 -9 9 -15 1 -23 -7 -7 -9 -25 -6 -40 l5 -29 -61
0 c-34 0 -61 -4 -61 -10 0 -5 -6 -10 -14 -10 -8 0 -17 -7 -20 -16 -3 -8 -10
-13 -14 -10 -5 3 -9 -8 -9 -24 0 -18 6 -30 14 -30 7 0 13 -5 13 -11 0 -5 -10
-9 -23 -7 -18 2 -22 -1 -19 -20 1 -17 -4 -25 -18 -29 -11 -3 -20 -9 -20 -14 0
-13 35 -42 77 -64 21 -11 49 -27 63 -36 14 -9 90 -55 170 -102 80 -47 153 -94
163 -104 19 -22 22 -55 7 -84 -16 -28 9 -25 39 6 13 14 29 25 37 25 30 0 349
-176 393 -217 13 -12 35 -24 49 -28 77 -19 603 -337 657 -396 65 -72 82 -146
47 -204 -10 -16 -33 -73 -51 -125 -32 -93 -52 -130 -95 -174 -20 -21 -225
-182 -426 -335 -153 -117 -227 -174 -356 -273 -254 -195 -334 -256 -504 -388
-166 -129 -457 -350 -520 -396 -16 -12 -42 -32 -58 -45 -16 -13 -39 -31 -52
-39 -12 -8 -28 -21 -36 -27 -7 -7 -15 -13 -18 -13 -6 0 -50 -37 -82 -67 -7 -7
-16 -13 -19 -13 -4 0 -26 -16 -49 -35 -24 -19 -48 -35 -53 -35 -6 0 -16 -7
-23 -15 -7 -8 -16 -12 -21 -9 -5 3 -6 -2 -3 -10 4 -11 0 -16 -13 -16 -10 0
-24 -9 -31 -20 -7 -11 -21 -20 -32 -20 -11 0 -20 -6 -20 -14 0 -7 -19 -26 -42
-42 -41 -28 -53 -38 -117 -96 -16 -16 -38 -28 -48 -28 -12 0 0 -17 41 -55 l59
-54 -7 -50 c-4 -28 -15 -69 -26 -93 -31 -68 -24 -124 10 -83 7 8 23 15 36 15
13 0 24 4 24 9 0 12 89 40 96 30 3 -5 10 -7 15 -3 5 3 21 -2 34 -10 19 -12 25
-25 25 -51 0 -19 -6 -38 -14 -42 -8 -4 -16 -17 -18 -28 -2 -11 -9 -19 -16 -18
-6 2 -14 -8 -18 -21 -3 -14 -11 -23 -18 -20 -7 3 -19 -7 -26 -21 -8 -15 -29
-33 -47 -40 -18 -8 -33 -20 -33 -28 0 -8 -29 -37 -65 -63 -35 -27 -64 -57 -65
-66 0 -10 -7 -18 -17 -18 -9 0 -13 -3 -10 -7 8 -8 -22 -43 -37 -43 -20 0 -39
-18 -31 -29 4 -8 11 -9 18 -3 7 5 38 12 71 15 76 8 128 -13 143 -57 5 -17 13
-39 18 -48 5 -14 2 -18 -13 -18 -15 0 -19 -7 -19 -32 0 -46 -23 -104 -34 -86
-7 10 -9 9 -9 -4 0 -9 5 -18 11 -20 7 -2 7 -12 0 -31 -28 -74 14 -168 48 -109
9 14 12 14 20 3 6 -10 13 -11 30 -2 11 7 21 16 21 21 0 6 13 10 29 10 36 0 91
20 73 27 -6 3 -10 9 -6 14 3 5 18 -3 34 -19 24 -21 31 -39 36 -85 5 -43 4 -61
-6 -67 -9 -6 -9 -12 -1 -29 7 -11 16 -21 21 -21 6 0 10 -7 10 -15 0 -13 3 -13
20 -3 15 10 22 10 32 0 19 -19 30 -14 23 11 -4 12 -3 17 2 10 4 -6 35 -12 68
-14 33 -1 70 -9 83 -17 12 -8 25 -12 29 -8 3 3 1 6 -5 6 -9 0 -9 6 0 22 7 13
13 24 14 25 0 2 14 -1 31 -6 23 -7 37 -5 50 5 10 7 29 14 43 14 15 0 31 5 38
12 9 9 15 9 24 0 17 -17 31 -15 24 3 -3 10 9 21 41 35 35 15 44 24 40 39 -3
14 0 17 14 14 24 -7 69 5 69 17 0 5 14 23 30 38 17 16 30 36 30 45 0 9 9 21
20 27 11 6 20 17 20 24 0 31 37 48 97 45 32 -2 63 0 70 4 15 9 53 -13 53 -30
0 -8 12 -13 28 -13 15 0 33 -5 40 -12 9 -9 12 -9 12 0 0 17 25 15 40 -3 18
-21 40 -19 40 5 0 17 -7 20 -40 20 -22 0 -40 5 -40 10 0 14 77 13 82 -1 2 -7
17 -8 41 -4 39 8 51 25 17 25 -11 0 -20 5 -20 11 0 10 54 6 103 -7 9 -3 17 -1
17 5 0 6 -11 11 -25 11 -14 0 -25 5 -25 10 0 6 10 10 21 10 12 0 34 12 49 27
36 37 65 53 95 53 14 0 25 4 25 9 0 5 14 14 30 20 17 5 33 18 37 28 11 30 36
42 88 43 28 1 44 4 38 7 -23 9 -14 33 11 33 33 0 57 10 50 21 -3 5 2 6 11 3 9
-4 24 1 35 11 11 10 26 15 34 12 8 -3 22 3 32 14 9 10 25 19 36 19 10 0 18 5
18 10 0 6 9 10 20 10 18 0 19 2 8 20 -17 26 3 41 44 33 20 -4 29 -1 34 11 3 9
15 16 25 16 10 0 40 14 66 30 26 17 65 33 86 37 27 4 35 8 25 15 -8 5 -4 6 13
3 19 -5 28 -2 33 10 4 10 12 15 21 11 9 -3 18 1 21 9 6 15 41 30 60 27 6 -1
24 5 40 13 16 8 38 15 49 15 17 0 17 2 5 10 -8 5 -13 10 -10 11 3 0 17 2 31 4
14 2 43 10 63 19 21 9 50 16 65 17 22 0 23 1 7 8 -19 7 -19 8 2 13 12 4 22 2
22 -3 0 -17 21 -9 45 19 13 15 25 21 25 14 0 -9 7 -9 30 3 17 9 35 13 40 10 6
-3 10 -1 10 4 0 6 8 11 18 11 10 0 26 6 37 13 11 7 51 24 90 36 38 12 73 28
78 34 7 9 10 9 13 0 4 -8 11 -9 22 -3 37 19 96 42 155 61 34 11 76 26 92 34
17 8 64 26 105 41 78 27 189 76 275 121 43 22 85 49 181 113 85 58 181 199
170 251 -4 20 -2 29 7 29 10 0 13 22 14 83 1 137 10 261 21 287 5 14 6 27 1
30 -4 3 -4 12 1 20 6 8 10 25 10 38 0 12 5 22 10 22 6 0 10 23 10 52 0 66 19
177 34 203 7 11 13 43 14 70 1 28 7 75 14 105 6 30 12 68 13 84 0 16 7 32 15
35 8 3 17 15 18 26 2 11 9 27 16 35 7 8 21 35 31 60 11 25 25 49 32 53 7 4 14
20 14 35 1 17 3 20 6 10 2 -10 9 -18 14 -18 13 0 11 48 -2 52 -9 3 -8 10 2 25
10 18 11 24 0 37 -11 13 -11 16 1 16 22 0 41 101 39 209 -2 92 9 152 34 181
19 23 43 118 48 189 3 46 9 68 21 77 10 7 15 17 11 23 -3 6 -3 17 2 23 10 16
10 21 23 153 6 61 14 119 17 130 4 11 5 41 4 67 -1 26 4 71 13 100 31 112 39
162 27 166 -6 2 -11 25 -11 53 0 28 4 48 9 45 13 -8 17 9 13 55 -2 21 -8 36
-13 33 -5 -3 -9 0 -9 5 0 6 5 11 10 11 6 0 10 7 10 15 0 9 7 18 16 22 8 3 14
15 12 27 -1 11 1 26 5 33 4 6 8 30 9 53 1 22 5 43 10 46 4 3 8 17 8 32 -1 23
-2 24 -11 10 -5 -9 -16 -15 -24 -12 -8 3 -75 -24 -149 -60 -83 -41 -157 -70
-193 -76 -32 -6 -74 -14 -93 -19 -19 -5 -66 -15 -105 -21 -38 -7 -74 -16 -80
-19 -38 -25 -219 -63 -283 -59 -38 2 -48 6 -48 21 0 9 5 16 10 14 6 -2 20 5
31 15 11 10 31 21 45 24 14 3 52 13 85 24 37 11 93 19 145 20 47 1 87 5 88 11
2 5 11 9 21 9 9 0 26 7 37 15 10 8 24 15 31 15 6 0 39 18 73 41 33 22 90 51
126 65 87 32 128 60 200 136 82 86 81 84 99 171 32 153 25 207 -36 292 -28 39
-31 49 -25 88 5 34 18 56 61 103 30 32 55 63 55 68 0 17 45 76 58 76 6 0 12 4
12 9 0 12 86 35 99 26 6 -3 11 -19 11 -34 0 -33 25 -98 47 -123 12 -14 15 -33
11 -86 -3 -38 -9 -75 -14 -83 -4 -7 -9 -22 -9 -32 -1 -9 -13 -30 -28 -45 -33
-35 -53 -83 -62 -152 -14 -111 -42 -204 -87 -296 -17 -34 -29 -81 -37 -154
-17 -148 -43 -290 -53 -290 -4 0 -8 -5 -8 -11 0 -5 5 -7 10 -4 5 3 10 -1 10
-9 0 -8 -4 -17 -9 -20 -9 -6 -21 -62 -27 -128 -2 -20 -8 -67 -14 -105 -6 -37
-15 -110 -21 -161 -5 -51 -14 -114 -20 -140 -14 -69 -29 -167 -39 -257 -5 -44
-12 -93 -15 -110 -4 -16 -11 -71 -15 -122 -5 -51 -11 -96 -13 -100 -3 -5 -8
-47 -12 -93 -3 -47 -8 -100 -10 -118 -5 -42 -44 -112 -63 -112 -7 0 -12 -6 -9
-12 2 -7 -2 -21 -10 -30 -9 -10 -12 -25 -8 -37 7 -22 65 -62 99 -68 86 -14
231 -35 281 -39 33 -3 78 -9 100 -14 22 -5 61 -10 86 -10 25 0 49 -3 53 -7 4
-4 24 -8 44 -9 20 -1 91 -10 157 -19 66 -9 138 -18 160 -20 22 -2 58 -7 80
-11 22 -3 56 -8 75 -10 88 -8 228 -26 260 -34 35 -9 86 -16 190 -26 66 -6 187
-31 215 -44 40 -19 180 -60 205 -60 14 0 34 -7 44 -15 11 -8 29 -15 40 -15 12
-1 66 -16 121 -35 55 -19 134 -44 175 -55 41 -11 84 -24 95 -29 31 -14 233
-80 305 -100 36 -10 92 -26 125 -35 33 -9 79 -25 102 -36 24 -11 48 -20 53
-20 6 0 28 -9 50 -20 22 -11 52 -20 68 -20 15 0 32 -4 38 -8 5 -5 39 -17 77
-27 37 -9 70 -21 73 -26 3 -5 18 -9 33 -9 15 0 31 -4 37 -10 5 -5 46 -19 89
-31 44 -11 87 -22 95 -24 8 -2 89 -31 180 -64 91 -33 172 -61 180 -61 8 0 28
-7 44 -15 15 -8 34 -15 41 -15 8 0 26 -5 42 -12 15 -6 33 -12 38 -14 6 -1 24
-7 40 -13 17 -6 64 -20 105 -32 135 -37 281 -89 291 -102 3 -4 10 -7 15 -6 5
2 29 -4 54 -11 25 -7 51 -13 58 -11 7 1 15 -5 18 -13 3 -9 10 -13 15 -11 5 3
21 -1 37 -9 15 -8 46 -18 67 -21 22 -4 45 -11 50 -16 9 -6 86 -26 165 -42 8
-2 22 -6 30 -10 8 -4 24 -8 35 -10 24 -5 54 -15 77 -28 10 -5 25 -9 33 -9 8 0
34 -8 58 -18 59 -26 165 -60 210 -68 20 -3 37 -10 37 -15 0 -5 10 -9 23 -9 12
0 35 -7 51 -15 15 -8 41 -15 57 -15 18 0 29 -5 29 -13 0 -9 14 -14 37 -15 21
-1 39 -6 41 -12 2 -5 21 -10 43 -10 21 0 39 -4 39 -8 0 -4 8 -8 18 -9 41 -4
59 -10 89 -26 18 -9 39 -17 47 -17 8 0 27 -6 43 -14 56 -28 79 -37 103 -40 14
-2 41 -10 60 -17 19 -7 39 -12 44 -11 4 2 13 -2 20 -7 20 -17 246 -88 311 -98
59 -9 111 -26 179 -58 37 -19 74 -31 82 -28 8 3 21 0 29 -7 8 -7 45 -19 82
-26 37 -8 80 -21 97 -29 16 -8 41 -15 55 -15 17 0 22 -3 13 -8 -13 -9 120 -50
187 -58 19 -3 38 -7 44 -11 17 -11 240 -49 277 -48 19 1 54 2 78 3 l42 2 -2
2326 -3 2326 -40 13 c-22 7 -71 20 -110 29 -470 109 -1013 254 -1041 277 -7 5
-16 9 -20 7 -5 -1 -18 3 -29 9 -11 6 -56 20 -100 32 -44 12 -91 27 -105 32
-13 6 -72 13 -130 15 -108 5 -180 18 -400 74 -19 4 -66 16 -105 25 -38 10 -79
21 -90 26 -64 26 -127 42 -180 43 l-61 1 -76 -77 c-42 -43 -80 -78 -85 -78 -9
0 -43 -36 -43 -45 0 -3 -13 -18 -30 -33 -16 -16 -30 -33 -30 -37 0 -4 -16 -22
-35 -41 -19 -18 -35 -36 -35 -41 0 -4 -12 -19 -26 -32 -17 -16 -24 -33 -22
-50 3 -26 12 -29 54 -16 27 8 64 -28 57 -56 -6 -22 12 -26 21 -4 8 22 26 18
26 -5 0 -11 -4 -20 -10 -20 -5 0 -10 -9 -10 -20 0 -13 -7 -20 -20 -20 -25 0
-26 -15 -2 -30 16 -9 16 -11 -1 -21 -12 -7 -16 -18 -13 -32 3 -12 3 -16 0 -9
-9 19 -23 15 -50 -16 -18 -19 -27 -23 -31 -14 -4 10 -8 10 -19 1 -19 -15 -18
-39 1 -39 8 0 15 -4 15 -10 0 -5 -8 -10 -19 -10 -23 0 -36 -16 -45 -53 -4 -15
-11 -25 -16 -22 -5 3 -18 -12 -29 -33 -18 -35 -19 -57 -18 -226 2 -168 0 -189
-15 -200 -26 -19 -22 -27 8 -20 22 6 25 4 22 -12 -2 -11 -13 -20 -26 -22 -14
-2 -22 -10 -22 -24 0 -25 -67 -88 -93 -88 -12 0 -17 -5 -14 -14 8 -20 -28 -68
-65 -86 -19 -9 -40 -29 -49 -49 -9 -19 -26 -38 -39 -43 -12 -4 -24 -17 -27
-28 -5 -20 -33 -29 -33 -10 0 16 -70 12 -87 -5 -11 -11 -13 -26 -9 -47 4 -20
1 -39 -9 -55 -19 -28 -35 -30 -35 -3 0 11 5 20 10 20 13 0 13 37 1 45 -16 9
-32 -60 -26 -106 5 -33 4 -40 -4 -29 -6 8 -11 32 -11 53 0 30 -4 37 -20 37
-17 0 -20 -7 -20 -40 0 -22 -5 -40 -10 -40 -7 0 -8 -13 -4 -35 8 -43 -2 -77
-16 -55 -7 12 -10 9 -10 -12 0 -15 -4 -30 -10 -33 -5 -3 -10 1 -10 9 0 33 -18
14 -24 -24 -5 -30 -13 -43 -29 -49 -13 -5 -29 -16 -36 -25 -7 -9 -20 -16 -27
-16 -20 0 -17 50 4 66 15 12 13 13 -21 14 -35 0 -38 -2 -31 -22 4 -13 13 -32
20 -43 20 -27 18 -55 -4 -55 -9 0 -29 -11 -44 -25 -15 -14 -34 -25 -41 -25 -8
0 -17 -7 -21 -15 -3 -8 -12 -15 -21 -15 -8 0 -15 -4 -15 -10 0 -5 7 -10 15
-10 8 0 15 -4 15 -10 0 -5 -7 -10 -15 -10 -8 0 -15 -6 -15 -13 0 -19 -24 -67
-33 -67 -5 0 -25 -18 -46 -40 -20 -22 -43 -40 -49 -40 -7 0 -12 -9 -12 -21 0
-15 -5 -19 -15 -15 -8 3 -28 -6 -44 -19 -16 -14 -34 -25 -40 -25 -6 0 -11 -4
-11 -9 0 -5 -12 -11 -27 -13 -22 -2 -29 -10 -34 -33 l-7 -30 -1 33 c-1 30 -17
42 -35 25 -16 -16 -77 -29 -141 -31 -38 -1 -74 -7 -79 -12 -6 -6 -18 -10 -27
-10 -10 0 -25 -7 -34 -17 -11 -11 -40 -18 -91 -21 -41 -2 -74 -9 -74 -14 0
-14 -153 1 -163 16 -5 7 -15 2 -31 -16 -19 -21 -25 -43 -31 -107 l-7 -81 -44
0 c-35 0 -44 4 -44 17 0 14 -2 15 -12 4 -10 -11 -10 -14 0 -18 34 -13 4 -23
-68 -23 l-80 0 0 50 c0 28 5 50 10 50 6 0 10 7 10 15 0 8 9 15 20 15 11 0 20
-7 20 -15 0 -8 9 -15 20 -15 24 0 24 -1 3 40 -16 32 -15 34 5 51 26 20 28 29
7 29 -8 0 -15 5 -15 10 0 13 21 13 54 0 30 -11 34 -3 9 16 -17 13 -17 13 0 14
20 0 24 40 3 40 -7 0 -16 11 -19 26 -4 23 -2 25 27 20 17 -3 25 -3 19 0 -17 7
-17 31 0 37 9 3 9 7 -1 19 -10 13 -10 17 2 21 8 3 20 22 27 41 7 20 19 36 26
36 7 0 13 7 13 15 0 14 45 65 58 65 4 0 16 14 27 30 11 16 26 30 33 30 7 0 17
12 22 26 6 14 14 23 19 20 5 -4 21 7 34 24 14 16 30 30 36 30 6 0 11 5 11 10
0 6 8 10 18 10 9 0 28 14 42 30 14 17 33 30 42 30 19 0 58 34 58 50 0 6 6 10
13 10 15 0 57 41 57 56 0 6 10 10 22 10 14 -1 27 8 34 23 7 13 24 35 38 48 14
13 26 28 26 33 0 6 7 10 15 10 8 0 15 7 15 15 0 9 10 19 23 24 23 10 58 46 51
54 -3 2 7 12 21 21 14 9 25 23 25 31 0 8 8 15 19 15 10 0 21 9 24 20 3 12 14
20 25 20 12 0 24 5 27 11 4 6 17 14 29 19 19 8 18 9 -9 10 -28 1 -29 2 -7 10
12 5 22 17 23 27 0 13 2 14 6 4 4 -9 18 0 47 30 42 45 68 65 98 75 9 3 14 12
11 20 -3 8 3 17 13 21 27 10 54 36 54 51 0 8 6 12 15 8 9 -3 15 0 15 8 0 14
127 146 141 146 5 0 9 3 9 8 0 7 30 25 63 38 9 3 17 11 17 17 0 6 12 23 27 39
22 23 24 30 13 43 -8 9 -21 14 -31 12 -12 -3 -16 0 -12 9 3 10 -3 14 -20 14
-14 0 -27 7 -31 15 -7 21 -26 19 -26 -2 0 -14 -3 -13 -16 5 -11 17 -19 20 -28
13 -9 -7 -16 -7 -24 1 -9 9 -19 7 -42 -10 -16 -12 -39 -22 -51 -22 -12 0 -30
-6 -38 -14 -9 -8 -32 -19 -51 -24 -61 -19 -107 -37 -123 -50 -8 -7 -30 -14
-48 -15 -19 -1 -37 -6 -41 -12 -4 -5 -25 -8 -46 -6 -22 1 -43 -2 -47 -8 -3 -6
-22 -11 -41 -11 -32 0 -60 -11 -94 -36 -18 -14 -160 -25 -160 -13 0 5 -7 9
-15 9 -8 0 -15 -4 -15 -10 0 -5 -17 -10 -39 -10 -29 0 -40 5 -43 18 -3 10 -21
23 -41 29 -33 10 -36 9 -40 -11 -4 -20 -4 -20 -6 2 0 12 -7 22 -15 22 -8 0
-18 -10 -22 -22 -6 -21 -8 -21 -13 -5 -4 10 -10 18 -15 17 -4 -1 -14 6 -20 16
-9 12 -19 15 -32 10 -10 -4 -52 -9 -92 -10 -62 -2 -75 0 -83 16 -6 11 -21 18
-38 18 -15 0 -36 9 -46 20 -10 12 -24 19 -31 16 -16 -6 -34 13 -27 30 3 8 -1
14 -10 14 -10 0 -13 -7 -10 -20 3 -12 0 -20 -7 -20 -7 0 -10 -8 -7 -20 8 -32
-6 -23 -26 17 -13 27 -15 38 -6 43 12 8 -7 31 -51 62 -25 17 -25 17 -2 17 23
1 30 15 12 26 -5 3 -10 2 -10 -3 0 -16 -30 -23 -52 -11 -18 10 -19 12 -3 29
16 17 15 19 -12 35 l-28 16 28 -6 c19 -4 34 0 49 15 l21 19 -24 24 c-26 26
-79 44 -79 27 0 -5 -7 -10 -15 -10 -8 0 -15 5 -15 10 0 6 7 10 15 10 8 0 15 9
15 19 0 12 11 23 28 29 l27 10 -27 1 c-16 1 -28 -3 -28 -9 0 -5 -7 -10 -15
-10 -8 0 -15 5 -15 10 0 6 -8 10 -18 10 -15 0 -18 9 -18 58 0 31 2 49 4 40 2
-10 10 -18 18 -18 10 0 14 -12 14 -40 0 -22 5 -40 10 -40 6 0 10 18 10 40 0
29 4 40 15 40 8 0 15 5 15 10 0 13 -17 13 -25 0 -5 -8 -11 -7 -21 1 -19 15 -8
29 22 29 25 0 33 15 12 22 -8 3 -11 21 -9 51 2 46 2 47 -28 47 -29 0 -31 2
-31 40 0 29 4 40 15 40 11 0 15 11 15 40 0 30 4 40 16 40 10 0 14 6 11 14 -17
43 -18 85 -3 114 15 30 15 31 -7 34 -22 3 -22 3 6 29 30 29 35 49 12 49 -18 0
-20 16 -2 22 20 8 37 -2 37 -23 0 -23 15 -25 24 -4 3 9 -1 18 -9 21 -20 8 -19
40 2 48 13 6 14 9 5 15 -8 5 -12 23 -10 47 3 38 4 39 36 36 25 -3 39 3 57 22
14 16 30 23 39 20 21 -8 76 45 76 73 0 14 7 23 21 25 16 2 26 16 38 53 12 37
17 44 19 27 4 -26 22 -20 22 9 0 10 6 19 14 19 9 0 12 -7 9 -20 -7 -25 8 -26
24 -1 10 16 8 23 -14 45 -14 14 -22 26 -16 26 5 0 15 -6 21 -12 10 -10 15 -10
20 -1 4 6 24 14 44 18 21 4 36 11 33 15 -3 4 5 19 16 34 14 18 18 33 14 48 -6
19 -5 21 6 11 18 -18 39 -16 39 2 0 8 3 15 8 15 4 0 25 18 47 39 22 21 46 36
53 34 6 -3 12 0 12 6 0 6 -7 11 -15 11 -8 0 -15 5 -15 10 0 6 10 10 23 10 13
0 31 8 39 18 9 9 30 31 46 49 16 18 27 35 24 38 -3 3 3 5 12 5 18 0 96 70 96
86 0 5 13 15 29 22 16 7 41 24 55 37 15 14 38 25 52 25 13 0 24 5 24 10 0 15
35 47 59 55 12 3 21 12 21 20 0 7 10 15 23 17 12 2 26 13 32 26 5 12 13 22 17
22 5 0 8 7 8 15 0 8 6 15 13 15 8 0 22 9 32 20 10 11 30 20 45 20 16 0 30 7
34 15 3 8 12 15 21 15 8 0 15 7 15 15 0 8 9 15 19 15 11 0 27 3 37 7 16 6 16
7 -2 14 -18 7 -18 7 0 14 11 5 21 3 27 -6 7 -11 9 -11 9 3 0 10 9 22 20 28 11
6 20 18 20 28 1 15 2 15 15 -2 14 -18 15 -18 25 5 6 14 28 36 48 49 20 14 44
34 53 45 9 11 33 27 53 35 21 8 36 21 36 30 0 16 38 40 64 40 8 0 19 6 25 14
6 7 24 16 39 19 15 3 39 17 54 31 15 15 31 26 36 26 5 0 17 9 27 20 10 11 31
20 46 20 18 0 32 7 39 20 6 11 16 20 23 18 17 -3 87 24 87 34 0 4 6 8 14 8 19
0 26 48 16 116 -10 69 -30 155 -40 169 -4 6 -17 39 -29 75 -13 36 -45 110 -72
165 -44 91 -100 236 -148 385 -10 30 -46 129 -79 220 -33 91 -70 193 -81 227
-11 33 -25 72 -30 85 -5 12 -33 88 -61 168 -28 80 -59 163 -69 185 -10 22 -28
67 -41 100 -28 71 -38 85 -56 85 -17 0 -19 -30 -1 -30 6 0 4 -5 -7 -11 -14 -9
-15 -13 -6 -19 10 -6 6 -15 -15 -34 -17 -16 -25 -31 -21 -41 4 -11 -5 -25 -24
-42 -17 -13 -30 -33 -30 -44 0 -12 -10 -23 -25 -29 -15 -6 -32 -26 -42 -50
-10 -22 -21 -40 -25 -40 -5 0 -8 -11 -8 -24 0 -28 -15 -41 -45 -41 -23 0 -34
-43 -15 -55 7 -4 1 -7 -14 -7 -26 0 -65 -36 -66 -60 0 -7 -6 -13 -13 -13 -7 0
-21 -13 -30 -29 -10 -17 -26 -33 -37 -36 -11 -4 -20 -13 -20 -22 0 -9 -12 -26
-26 -39 -14 -13 -22 -29 -19 -34 3 -6 -5 -14 -18 -19 -33 -13 -115 -97 -120
-124 l-4 -22 -8 23 c-9 26 -25 30 -25 6 0 -19 -87 -104 -107 -104 -7 0 -17 -9
-23 -20 -6 -11 -25 -27 -42 -36 -21 -11 -27 -18 -19 -24 9 -5 4 -10 -14 -14
-18 -5 -25 -12 -21 -22 7 -20 -23 -31 -35 -13 -7 11 -10 9 -15 -8 -4 -13 -10
-23 -15 -23 -15 0 -80 -71 -74 -80 3 -5 -5 -14 -17 -21 -26 -14 -78 -66 -71
-72 2 -2 -3 -10 -12 -17 -10 -8 -15 -9 -15 -1 0 6 -4 11 -10 11 -5 0 -10 -7
-10 -15 0 -8 -7 -15 -15 -15 -8 0 -22 -11 -31 -25 -9 -14 -24 -25 -34 -25 -10
0 -30 -14 -45 -32 -15 -17 -36 -32 -48 -33 -24 -1 -87 -56 -87 -74 0 -20 -70
-83 -86 -77 -8 3 -14 -1 -14 -9 0 -8 -8 -20 -18 -27 -10 -7 -21 -21 -25 -30
-3 -10 -13 -18 -22 -18 -8 0 -15 -4 -15 -9 0 -5 -12 -14 -27 -20 -36 -13 -83
-56 -83 -75 0 -8 -8 -17 -18 -20 -10 -4 -42 -35 -71 -71 -30 -36 -60 -64 -69
-63 -42 3 -53 -2 -47 -22 5 -15 0 -21 -19 -26 -14 -3 -23 -10 -20 -15 3 -5 -6
-9 -19 -9 -14 0 -30 -7 -37 -16 -10 -11 -29 -14 -75 -12 -48 2 -69 -2 -99 -20
-45 -26 -81 -28 -95 -4 -10 16 -10 16 -11 0 0 -13 -8 -18 -30 -18 -16 0 -33
-6 -37 -12 -13 -20 -48 -37 -156 -74 -56 -19 -109 -38 -117 -41 -8 -3 -28 -7
-44 -8 -16 -2 -32 -8 -36 -15 -4 -7 -17 -10 -28 -8 -12 3 -30 -1 -41 -9 -12
-8 -34 -13 -49 -11 -24 3 -17 9 58 53 47 28 130 73 185 100 88 44 96 50 70 53
-33 4 -58 20 -50 32 3 4 -11 11 -30 14 -38 7 -46 28 -20 56 13 14 11 16 -20
12 -22 -3 -35 -10 -35 -19 0 -8 -4 -12 -8 -9 -5 3 -21 -7 -37 -22 -16 -15 -33
-26 -37 -25 -5 2 -8 -2 -8 -7 0 -5 -3 -9 -8 -7 -4 1 -27 -7 -50 -17 -37 -17
-46 -17 -67 -6 -31 17 -46 5 -19 -15 12 -9 14 -14 6 -15 -7 0 -21 7 -30 16
-15 15 -14 18 11 40 15 13 27 27 27 32 0 11 60 72 71 72 15 0 10 27 -6 34 -8
3 -15 1 -15 -4 0 -6 -11 -10 -24 -10 -14 0 -28 -4 -31 -10 -3 -5 -15 -10 -26
-10 -10 0 -18 -5 -16 -10 2 -10 -32 -34 -65 -46 -10 -3 -18 -10 -18 -15 0 -5
-7 -9 -15 -9 -8 0 -23 -9 -32 -20 -10 -11 -23 -20 -30 -20 -16 0 -6 56 16 84
27 34 101 105 126 122 14 9 25 25 25 35 0 10 16 35 35 55 19 19 35 38 35 41 0
3 16 27 35 53 19 26 35 51 35 55 0 4 10 18 23 32 61 68 77 83 87 83 5 0 10 4
10 8 0 5 12 15 26 22 14 8 28 26 31 42 3 15 9 25 13 23 12 -7 42 25 37 39 -2
6 -14 10 -27 8 -16 -1 -21 2 -16 13 11 29 -23 15 -86 -37 -35 -29 -67 -58 -71
-65 -4 -7 -15 -13 -22 -13 -8 0 -15 -7 -15 -15 0 -9 -7 -18 -16 -22 -19 -7
-80 -69 -169 -168 -71 -81 -89 -99 -138 -145 -38 -35 -38 -35 -35 -9 2 14 11
38 21 52 20 31 21 43 5 51 -9 3 -8 8 5 16 21 13 14 30 -14 30 -10 0 -19 7 -19
15 0 8 -5 15 -11 15 -7 0 -9 -10 -5 -26 6 -24 5 -26 -18 -20 -29 7 -56 -1 -56
-18 0 -6 -16 -35 -35 -63 -19 -29 -35 -55 -35 -59 0 -4 -6 -15 -13 -23 -7 -9
-26 -47 -41 -86 -33 -82 -43 -107 -55 -137 -5 -13 -12 -40 -15 -61 -2 -21 -12
-52 -20 -69 -36 -71 -12 -76 53 -12 44 44 109 83 140 84 8 0 20 -8 28 -17 13
-17 14 -16 9 7 -3 14 -3 19 0 13 3 -7 12 -13 19 -13 7 0 15 -5 17 -11 4 -13
35 0 62 26 20 20 87 34 69 14 -17 -18 -16 -29 2 -29 23 0 18 -28 -7 -41 -13
-7 -28 -17 -35 -23 -29 -26 -42 -36 -47 -36 -3 0 -35 -22 -72 -50 -36 -27 -98
-65 -138 -84 -39 -18 -83 -44 -97 -57 -75 -69 -97 -85 -129 -94 -25 -7 -36
-17 -38 -33 -4 -23 16 -30 34 -12 6 6 35 17 65 24 31 8 82 29 115 45 63 33
103 42 68 16 -10 -8 -14 -15 -7 -15 6 0 18 7 26 15 11 11 16 12 19 3 3 -8 22
0 54 23 49 35 113 69 132 69 5 0 15 -7 22 -15 10 -12 10 -15 -4 -15 -9 0 -16
-6 -16 -12 0 -7 -22 -28 -49 -46 -26 -18 -67 -50 -90 -71 -24 -22 -59 -47 -79
-57 -20 -11 -44 -28 -53 -39 -9 -11 -27 -32 -40 -46 -13 -14 -31 -36 -39 -48
-8 -11 -18 -21 -23 -21 -11 0 -74 -47 -119 -88 -22 -21 -52 -37 -76 -42 -47
-8 -52 -1 -52 92 0 61 -4 66 -60 84 l-35 11 37 17 c50 22 80 79 77 146 -2 32
-8 51 -17 55 -11 4 -12 16 -7 53 14 87 7 151 -15 137 -21 -13 -83 -162 -88
-210 -2 -29 -11 -55 -20 -63 -9 -6 -12 -12 -8 -12 5 0 2 -10 -7 -23 -21 -32
-31 -85 -18 -100 15 -19 9 -56 -11 -63 -24 -7 -34 -29 -41 -86 -4 -25 -25 -95
-48 -155 -43 -112 -58 -197 -39 -223 11 -16 30 1 88 74 32 42 45 22 25 -38
-11 -31 -34 -68 -63 -98 -25 -26 -45 -48 -44 -48 7 0 -45 -46 -63 -56 -22 -14
-53 -1 -53 21 0 12 -7 11 -35 -5 -39 -22 -60 -26 -50 -10 3 6 2 10 -3 10 -6 0
-4 30 4 73 18 95 18 110 -6 137 -24 28 -26 70 -3 113 22 41 53 130 47 136 -2
2 -4 -2 -4 -9 0 -11 -3 -11 -12 -2 -7 7 -10 50 -9 128 2 112 4 122 42 210 21
51 39 96 39 100 0 4 32 72 72 153 39 80 77 160 83 178 12 31 12 32 -9 21 -41
-22 -83 -85 -109 -161 -9 -27 -38 -78 -64 -115 -26 -36 -58 -82 -69 -101 -20
-32 -47 -46 -65 -35 -4 2 3 37 17 76 13 39 24 82 24 95 0 13 9 49 20 80 11 31
17 60 14 64 -9 15 -42 10 -96 -15 -29 -13 -72 -30 -95 -37 -24 -7 -43 -16 -43
-21 0 -5 14 -62 30 -126 49 -187 62 -278 55 -394 -3 -57 -10 -119 -15 -138 -5
-19 -11 -61 -14 -94 -6 -66 -7 -69 -39 -73 -18 -2 -19 -1 -7 7 12 8 12 12 2
18 -8 6 -14 44 -17 118 -12 331 -31 500 -64 587 -9 24 -13 26 -36 15 -14 -6
-25 -15 -25 -20 0 -4 -3 -7 -7 -7 -5 1 -10 1 -13 0 -3 -1 -30 -5 -60 -7 -30
-3 -58 -11 -62 -17 -4 -6 -10 -8 -14 -4 -10 10 14 35 71 73 79 52 117 90 117
116 1 12 -16 84 -36 158 -53 193 -46 178 -62 149 -7 -13 -21 -49 -30 -79 -23
-78 -84 -199 -105 -211 -25 -13 -25 -3 3 137 11 62 18 120 14 130 -6 16 -9 15
-31 -11 -56 -70 -67 -109 -71 -243 -1 -70 -6 -188 -9 -262 -12 -273 -9 -295
35 -255 18 16 20 16 36 1 18 -18 19 -15 -44 -84 -27 -30 -32 -56 -43 -218 -6
-93 -15 -178 -19 -190 -8 -21 -45 -27 -58 -8 -4 5 -16 9 -26 9 -22 0 -26 13
-31 115 -3 57 -9 78 -22 88 -11 8 -19 9 -21 2 -2 -5 -10 -10 -19 -10 -11 0
-13 7 -7 33 4 17 8 66 9 107 1 41 9 93 18 115 8 22 18 72 22 111 6 76 19 124
58 219 31 76 45 158 51 313 4 77 11 134 20 150 29 54 66 139 66 150 0 7 -4 12
-10 12 -5 0 -10 7 -10 15 0 26 -17 16 -23 -13 -11 -56 -89 -210 -108 -215 -10
-3 -22 -1 -25 4 -3 5 -16 9 -28 9 -20 0 -26 8 -35 44 -14 55 -15 316 -3 450 5
54 6 115 2 135 -19 85 -21 159 -8 212 17 69 10 297 -8 264 -7 -11 -15 -36 -19
-55 -3 -19 -27 -96 -52 -170 l-46 -135 12 -165 c7 -91 17 -203 22 -250 29
-273 -7 -804 -64 -931 -28 -64 -46 -82 -48 -47 -1 17 -3 18 -6 5 -2 -9 -9 -14
-15 -11 -6 4 -17 -2 -25 -12 -14 -18 -15 -18 -37 9 -16 20 -26 52 -35 110 -6
44 -13 82 -16 85 -2 3 -13 -5 -23 -18 l-18 -22 -1 24 c0 12 3 64 8 113 4 50 9
123 10 163 1 40 8 108 16 150 8 42 20 122 29 177 8 55 16 109 18 120 7 42 19
171 17 186 -1 9 -11 34 -21 55 -11 21 -20 54 -20 72 0 19 -7 75 -15 126 -9 50
-20 118 -26 151 -16 94 -84 378 -120 500 -49 165 -84 274 -87 270 -2 -2 4 -30
13 -62 10 -32 19 -89 20 -128 2 -38 14 -110 28 -160 23 -87 36 -159 57 -335
16 -131 13 -195 -11 -247 -23 -50 -21 -100 7 -233 19 -88 30 -396 15 -432 -13
-35 -34 -35 -68 -2 -14 14 -26 24 -27 22 -2 -2 -11 -34 -21 -73 -22 -87 -57
-166 -99 -225 -28 -39 -34 -56 -39 -128 -5 -69 -2 -100 19 -190 31 -129 42
-246 24 -267 -21 -25 -35 -17 -63 38 -14 28 -37 70 -50 92 -13 22 -34 68 -46
103 -13 34 -27 62 -32 62 -12 0 -78 -92 -79 -109 0 -8 -3 -11 -7 -7 -8 8 -83
-63 -83 -79 0 -5 -9 -16 -20 -23 -26 -16 -26 -47 0 -79 11 -14 20 -36 20 -49
0 -15 23 -49 64 -94 80 -87 129 -181 120 -228 -4 -20 -12 -32 -23 -32 -18 0
-151 126 -151 143 0 12 -71 69 -80 65 -3 -2 -19 7 -36 19 l-31 22 -20 -22
c-12 -12 -28 -49 -36 -82 -9 -33 -25 -94 -36 -135 -12 -41 -26 -95 -31 -120
-13 -57 -51 -125 -70 -125 -12 0 -15 16 -15 80 0 113 18 174 97 343 26 57 48
108 48 113 0 10 -43 2 -72 -13 -10 -5 -18 -19 -18 -31 0 -34 -15 -50 -39 -42
-12 3 -18 11 -15 17 5 8 -1 9 -17 4 -82 -26 -126 -10 -75 26 33 25 50 56 39
71 -18 24 -35 89 -43 165 -4 42 -20 106 -35 142 -21 54 -31 100 -35 173 0 4
-5 7 -11 7 -7 0 -20 9 -30 21 -15 17 -16 24 -6 40 14 22 32 26 24 5 -3 -8 1
-17 9 -20 7 -3 13 -2 13 2 -1 4 -1 20 0 37 1 25 3 27 15 15 24 -25 67 -111 61
-121 -4 -5 5 -9 18 -9 17 0 27 7 32 23 6 21 7 20 14 -8 5 -16 14 -55 20 -85
19 -81 22 -90 31 -90 8 0 20 39 25 89 2 14 8 62 13 105 6 44 8 85 5 93 -3 7 0
26 7 42 10 26 9 35 -14 73 -13 24 -36 90 -50 148 -29 124 -95 343 -125 419
-21 52 -21 60 -10 170 13 129 24 156 69 166 16 4 30 9 30 11 0 11 -51 84 -59
84 -6 0 -12 -9 -16 -19 -7 -24 -31 -34 -53 -22 -9 4 -32 11 -49 14 -29 6 -33
4 -34 -16 0 -12 -2 -31 -4 -41 -5 -24 42 -173 56 -182 8 -4 7 -9 -2 -15 -11
-6 -10 -9 3 -14 12 -5 15 -15 11 -46 -3 -21 0 -60 8 -86 7 -27 14 -51 14 -55
0 -3 3 -10 8 -14 4 -4 7 -16 7 -26 0 -10 5 -18 10 -18 6 0 10 -11 10 -25 0
-14 5 -25 11 -25 5 0 7 -5 4 -10 -4 -6 8 -73 25 -150 17 -77 29 -144 26 -149
-4 -5 1 -31 11 -58 17 -49 23 -146 10 -159 -14 -14 -21 7 -21 65 -1 44 -4 57
-14 53 -9 -3 -11 2 -7 20 8 29 -78 195 -110 212 -11 6 -30 21 -41 33 -12 12
-25 19 -28 16 -10 -10 -7 -69 5 -99 7 -20 7 -43 -1 -79 -22 -95 -18 -92 -65
-41 -43 48 -59 46 -44 -4 21 -64 60 -219 64 -250 2 -19 7 -51 10 -71 5 -28 3
-38 -10 -43 -9 -3 -21 -4 -26 0 -5 3 -9 0 -9 -5 0 -24 -27 -8 -50 29 -14 22
-30 40 -36 40 -19 0 -74 88 -79 127 -9 71 -40 169 -62 198 -49 65 -79 82 -56
32 18 -38 33 -102 38 -164 9 -111 17 -178 32 -263 8 -47 16 -101 18 -120 2
-19 7 -45 10 -57 4 -13 3 -23 -2 -23 -10 0 -33 65 -33 94 0 9 -5 16 -11 16 -7
0 -9 9 -6 21 3 12 2 29 -2 38 -13 26 -41 152 -36 160 2 5 0 25 -6 45 -10 35
-12 37 -28 22 -17 -15 -19 -13 -36 26 -9 24 -22 53 -28 66 l-11 23 -9 -23 c-5
-13 -6 -49 -3 -81 3 -34 2 -57 -4 -57 -6 0 -10 11 -10 24 0 30 -17 43 -23 19
-3 -11 -5 -7 -6 10 0 16 -5 26 -9 23 -11 -6 -42 30 -42 48 0 8 -7 16 -15 20
-19 7 -30 -32 -22 -78 3 -19 1 -38 -5 -44 -7 -7 -6 -17 1 -30 12 -23 15 -76 4
-69 -5 3 -8 -9 -8 -26 -1 -18 -3 -41 -5 -52 -3 -11 0 -19 6 -18 6 1 11 -11 11
-27 0 -16 -3 -27 -7 -25 -3 2 -5 -14 -3 -36 3 -34 -2 -44 -36 -79 -21 -22 -49
-41 -61 -42 -19 -3 -25 5 -41 52 -26 75 -44 109 -78 150 -25 29 -31 32 -45 21
-9 -7 -16 -21 -16 -30 0 -9 -6 -23 -12 -29 -10 -10 -10 -15 2 -22 12 -8 12
-10 -3 -16 -10 -4 -23 -2 -30 5 -16 16 -23 14 -24 -11 -1 -12 10 -33 25 -48
31 -30 184 -140 222 -160 48 -25 226 -178 322 -278 123 -127 210 -261 248
-382 7 -25 16 -49 20 -55 3 -5 7 -26 9 -45 2 -19 4 -36 5 -37 1 -1 22 3 46 8
68 15 114 -9 135 -71 23 -69 23 -235 1 -252 -5 -3 -11 -15 -13 -25 -2 -16 -13
-236 -15 -301 0 -15 -5 -22 -14 -18 -9 3 -11 0 -7 -11 5 -13 3 -14 -15 -4 -21
11 -25 25 -25 83 0 16 -5 28 -11 28 -7 0 -11 12 -11 27 1 16 -2 33 -6 38 -3 6
-9 24 -12 40 -18 96 -30 141 -38 149 -5 6 -9 20 -9 31 0 92 -129 427 -229 595
-63 106 -214 254 -391 385 -23 17 -68 53 -101 82 -33 29 -70 55 -82 59 -23 7
-67 52 -67 68 0 6 -5 5 -11 -1 -7 -7 -4 -24 14 -59 13 -27 27 -70 31 -96 4
-27 12 -48 17 -48 6 0 7 -4 4 -10 -4 -6 -18 -4 -37 6 l-31 16 7 -43 c4 -23 15
-59 25 -78 25 -50 36 -79 50 -131 6 -25 18 -68 26 -96 7 -28 17 -75 21 -105 4
-30 11 -60 17 -67 5 -7 7 -15 4 -18 -3 -3 1 -27 9 -52 8 -26 16 -63 18 -82 2
-19 7 -51 10 -70 3 -19 8 -53 10 -75 2 -22 8 -67 14 -100 15 -92 13 -101 -24
-103 -18 -2 -35 2 -39 8 -4 6 -22 7 -46 4 -43 -7 -41 -12 -42 84 0 23 -4 42
-8 42 -5 0 -6 6 -3 14 4 9 -3 16 -18 18 l-23 5 24 10 c16 6 20 12 13 17 -7 4
-12 16 -12 27 0 10 -4 19 -10 19 -13 0 -50 74 -50 100 0 11 -6 20 -14 20 -8 0
-17 15 -21 36 -3 20 -13 43 -21 51 -8 8 -14 23 -14 33 0 10 -9 22 -21 25 -11
4 -18 9 -16 12 3 3 -8 27 -24 54 -16 28 -29 57 -29 66 0 13 -2 14 -17 2 -15
-13 -16 -11 -10 11 7 28 -6 59 -17 41 -12 -19 -22 -12 -40 29 -20 45 -36 52
-36 15 0 -14 -4 -25 -9 -25 -15 0 -21 15 -14 39 5 19 11 22 34 17 30 -6 42 8
28 36 -6 11 -16 14 -31 11 -19 -5 -21 -3 -10 8 19 20 14 49 -10 70 -20 16 -21
20 -8 29 13 9 12 10 -5 8 -13 -2 -21 4 -23 17 -2 11 -12 29 -22 40 -10 11 -21
30 -25 43 -3 12 -11 22 -16 22 -5 0 -9 7 -9 15 0 9 -9 15 -24 15 -20 0 -23 4
-18 23 3 12 12 27 20 33 11 8 12 13 4 18 -7 4 -12 4 -12 -1 -1 -19 -20 24 -20
45 0 63 -159 342 -294 516 -60 79 -281 306 -297 306 -14 0 -39 -31 -33 -41 11
-18 14 -99 4 -99 -7 0 -7 -7 0 -21 7 -11 8 -28 4 -37 -7 -17 -6 -55 1 -119 3
-24 0 -33 -10 -33 -20 0 -19 -18 1 -22 14 -3 13 -6 -4 -26 -16 -18 -19 -29
-12 -52 7 -25 5 -32 -13 -45 -18 -13 -19 -15 -4 -15 22 0 22 -20 0 -21 -15 0
-15 -2 -3 -7 9 -4 15 -21 15 -45 0 -26 -4 -37 -15 -38 -10 0 -8 -3 5 -9 18 -7
19 -8 3 -15 -24 -10 -22 -21 4 -30 l23 -7 -25 -7 c-22 -6 -25 -13 -24 -49 0
-22 -3 -39 -7 -36 -4 2 -6 -13 -4 -33 1 -20 -2 -45 -8 -54 -8 -13 -7 -25 2
-45 9 -20 9 -30 2 -32 -17 -6 -13 -52 4 -52 8 0 15 -7 15 -15 0 -8 -9 -15 -20
-15 -20 0 -20 -1 -3 -24 17 -23 18 -23 23 -4 5 19 6 20 20 3 12 -15 12 -18 -3
-26 -21 -12 -22 -29 -2 -29 8 0 15 -4 15 -10 0 -5 -7 -10 -15 -10 -8 0 -15 -8
-15 -17 0 -10 -3 -35 -6 -56 -6 -33 -4 -37 15 -37 11 0 21 -4 21 -10 0 -5 -7
-10 -15 -10 -24 0 -42 -47 -27 -71 7 -11 8 -19 2 -19 -5 0 -10 -16 -10 -35 0
-21 -8 -44 -19 -56 -18 -20 -19 -20 -30 -2 -9 16 -10 14 -11 -13 0 -16 5 -35
12 -42 9 -9 5 -12 -19 -12 -23 0 -32 -5 -36 -21 -4 -15 -11 -20 -22 -16 -13 6
-14 3 -4 -14 12 -23 3 -41 -10 -20 -5 8 -11 9 -14 4 -4 -6 5 -16 18 -23 24
-13 24 -14 7 -29 -27 -23 -60 -41 -77 -41 -8 0 -15 -7 -15 -15 0 -11 -7 -14
-25 -9 -18 4 -27 1 -31 -10 -9 -23 15 -47 40 -41 12 3 15 2 8 -1 -6 -3 -10
-10 -7 -14 3 -5 1 -11 -5 -15 -6 -3 -13 1 -16 9 -7 19 -70 22 -77 4 -3 -10 -7
-10 -20 1 -15 12 -17 10 -17 -13 0 -16 -4 -25 -10 -21 -16 10 -50 -5 -50 -21
0 -8 -9 -14 -21 -14 -21 0 -21 0 2 38 13 20 28 40 33 44 6 4 7 10 3 15 -5 4
-11 3 -15 -3 -10 -15 -45 -27 -36 -12 5 7 2 9 -9 5 -8 -3 -21 1 -27 9 -7 8 -9
14 -4 14 5 0 1 5 -9 11 -22 13 -38 2 -17 -11 12 -8 12 -10 -3 -16 -9 -3 -25
-3 -34 1 -17 8 -17 8 0 12 35 9 17 25 -20 18 -31 -6 -35 -4 -25 7 13 16 2 69
-19 94 -8 10 -8 14 0 14 19 0 12 37 -8 43 -15 4 -20 13 -19 38 0 19 5 39 10
46 5 7 5 14 -1 17 -5 3 -7 15 -4 26 4 16 0 20 -23 21 -27 0 -26 2 11 14 37 12
40 15 16 19 -21 3 -23 16 -3 16 25 0 29 15 7 24 -20 7 -19 18 5 44 11 12 20
32 20 46 0 14 8 29 17 34 15 9 14 11 -5 23 -25 16 -30 41 -7 33 15 -6 21 7 8
20 -11 11 -14 44 -4 51 5 3 7 14 4 25 -3 12 0 20 7 20 6 0 9 8 6 18 -3 10 -7
37 -8 60 -1 23 -6 42 -12 42 -6 0 3 9 19 20 19 13 24 20 14 20 -15 0 -15 4 -1
48 19 60 32 78 43 60 6 -9 9 -6 9 9 0 12 4 24 9 27 5 3 7 16 3 28 -3 14 -2 19
6 14 8 -5 12 1 12 18 0 14 4 27 10 31 5 3 7 12 3 20 -3 9 1 15 11 15 18 0 22
16 4 22 -7 3 -8 9 -3 18 4 7 9 28 11 47 2 18 10 43 19 55 10 15 15 45 15 85 0
35 3 63 8 63 11 0 8 53 -6 76 -7 15 -8 32 -2 53 5 17 5 31 1 31 -5 0 -11 42
-15 93 -11 133 -11 131 -17 142 -4 6 -6 29 -5 53 1 31 -3 42 -14 42 -13 0 -13
1 0 10 13 8 13 11 1 19 -11 7 -10 11 5 20 18 10 18 11 -2 17 -18 5 -20 10 -14
49 4 25 3 48 -1 52 -4 4 -10 53 -14 108 -3 55 -9 116 -14 135 -4 19 -3 50 1
68 9 33 1 64 -11 44 -3 -5 -6 14 -7 44 0 30 -5 59 -12 66 -16 16 -15 75 1 81
7 3 5 6 -5 6 -22 1 -24 21 -3 21 8 0 15 5 15 10 0 6 -7 10 -15 10 -8 0 -15 5
-15 10 0 6 7 10 16 10 13 0 14 3 4 15 -6 8 -12 35 -12 60 -1 25 -6 45 -11 45
-6 0 -7 20 -4 50 5 41 3 50 -10 50 -11 0 -14 6 -10 23 8 32 11 166 4 173 -3 3
-3 12 0 20 3 8 0 14 -6 14 -7 0 -9 12 -6 31 3 17 1 37 -6 45 -7 8 -11 57 -12
121 0 60 -5 111 -10 114 -5 4 -10 18 -10 33 -1 14 -4 26 -7 26 -3 0 -5 55 -5
123 0 67 -3 142 -7 166 -13 75 4 114 93 204 43 44 79 84 79 89 0 6 8 22 19 36
44 62 43 109 -1 157 -11 11 -31 43 -45 70 -23 46 -24 58 -20 150 5 94 20 155
39 155 4 0 8 8 8 18 0 10 16 39 36 65 45 58 129 101 194 99 49 -1 189 -29 205
-42 6 -4 28 -13 50 -20 22 -7 44 -16 50 -21 15 -15 88 -10 120 7 31 17 108 24
120 12 4 -4 10 -28 12 -53 3 -25 10 -48 14 -51 13 -7 11 -54 -1 -54 -7 0 -7
-7 0 -21 24 -45 -11 -178 -53 -200 -16 -9 -17 -13 -6 -20 11 -7 11 -9 -2 -9
-9 0 -22 -11 -29 -25 -7 -14 -18 -25 -24 -26 -6 0 -21 -13 -34 -29 -18 -24
-22 -37 -16 -65 7 -40 37 -82 68 -96 69 -32 102 -61 116 -103 9 -28 6 -40 -20
-91 -16 -32 -30 -68 -30 -80 0 -12 -3 -25 -7 -29 -7 -7 -14 -126 -15 -261 -1
-74 69 -149 158 -171 16 -4 34 -10 39 -14 6 -4 37 -15 70 -25 33 -10 65 -21
70 -25 6 -3 30 -12 55 -19 25 -7 50 -17 57 -23 7 -5 17 -7 23 -3 5 3 10 1 10
-4 0 -6 11 -11 24 -11 13 0 29 -7 36 -15 7 -8 23 -15 36 -15 13 0 39 -9 59
-20 20 -11 42 -20 51 -20 8 0 12 -4 9 -10 -3 -5 3 -10 14 -10 11 0 22 -4 25
-9 3 -5 34 -8 68 -8 72 0 118 -17 168 -62 19 -17 38 -31 42 -31 4 0 21 -19 37
-43 17 -23 46 -50 64 -58 71 -35 83 -40 112 -42 l30 -2 -3 55 c-2 46 1 57 18
68 12 7 20 8 20 2 0 -5 4 -10 9 -10 17 0 21 32 6 66 -16 40 -114 193 -198 311
-69 97 -87 128 -172 299 -68 137 -75 166 -42 199 26 25 55 7 89 -54 15 -26 40
-60 55 -74 15 -15 44 -42 63 -60 54 -52 129 -178 126 -211 -3 -23 0 -27 16
-23 12 4 18 1 16 -8 -2 -8 0 -13 5 -12 4 1 17 -18 29 -43 12 -25 35 -58 50
-75 15 -16 28 -36 28 -42 0 -7 4 -13 8 -13 5 0 25 -24 45 -53 37 -54 243 -267
257 -267 5 0 70 30 144 66 l136 66 14 48 c21 72 46 120 62 120 9 0 14 12 14
34 0 28 8 40 44 70 24 20 51 36 59 36 18 0 42 -64 31 -81 -8 -13 43 -58 67
-59 40 -1 75 79 50 118 -4 8 -2 32 6 57 15 43 48 65 74 49 15 -9 41 -73 34
-83 -2 -5 2 -15 11 -22 14 -11 19 -10 35 10 11 13 19 33 20 45 4 81 -1 153
-12 173 -11 20 -11 26 1 33 12 7 12 12 2 22 -6 6 -12 28 -12 47 0 20 -5 53
-11 74 -8 31 -16 39 -40 44 -17 3 -33 12 -36 19 -3 8 -13 14 -23 14 -34 0 -32
20 2 21 l33 0 -39 15 c-52 19 -78 43 -70 66 6 19 -10 25 -21 8 -3 -5 -14 -10
-23 -10 -13 0 -14 2 -4 9 11 6 8 14 -11 35 -18 19 -34 26 -63 26 -28 0 -35 3
-24 10 12 8 12 10 -2 15 -9 4 -22 5 -29 4 -25 -5 -69 11 -69 25 0 10 -20 19
-55 26 -30 6 -55 16 -55 21 0 5 -9 9 -20 9 -13 0 -20 7 -20 19 0 11 -9 21 -21
24 -12 3 -18 10 -14 17 3 6 1 9 -6 8 -7 -2 -15 6 -17 16 -2 11 -11 26 -19 34
-12 13 -12 17 4 34 17 19 17 21 -12 44 -17 13 -24 24 -16 24 11 0 11 3 1 15
-7 8 -15 13 -19 10 -4 -2 -22 9 -39 25 -20 18 -27 30 -19 34 8 3 7 9 -5 19
-10 8 -18 19 -18 24 0 6 -9 13 -20 16 -11 3 -20 14 -20 25 0 10 -10 32 -22 47
-17 22 -21 39 -19 81 1 33 -2 54 -8 54 -6 0 -13 11 -17 25 -4 18 -13 25 -30
25 -14 0 -24 6 -24 14 0 8 -7 16 -15 20 -12 4 -13 20 -8 83 3 43 6 88 6 101
-1 15 4 22 12 18 8 -3 11 2 8 15 -3 11 1 21 10 25 13 5 13 8 -4 25 -10 10 -19
25 -18 32 0 10 2 10 6 0 2 -7 9 -13 14 -13 13 0 -1 53 -18 63 -27 17 -11 97
20 97 20 0 20 0 1 15 -19 14 -18 14 4 15 12 0 22 5 22 10 0 6 10 10 23 10 13
0 32 7 43 15 10 8 27 15 37 15 9 0 17 4 17 9 0 5 14 11 30 15 17 3 29 11 28
17 -2 6 3 14 10 16 6 3 12 -2 12 -11 0 -11 9 -6 30 14 17 17 34 30 39 30 4 0
21 -11 37 -25 19 -17 24 -25 14 -26 -8 0 -4 -6 10 -12 39 -18 48 -36 40 -78
-5 -28 -4 -39 5 -39 7 0 16 -11 19 -25 4 -14 17 -30 29 -35 19 -7 19 -9 3 -9
-15 -1 -16 -4 -6 -16 7 -9 15 -14 17 -11 3 2 19 0 36 -6 18 -5 41 -11 52 -12
48 -8 75 -19 75 -31 0 -9 11 -11 35 -8 25 3 40 -1 57 -16 12 -12 29 -19 36
-16 21 8 92 -14 89 -28 -1 -7 12 -13 33 -15 19 -1 42 -6 50 -9 8 -3 17 -7 20
-8 3 0 25 -11 49 -24 40 -21 45 -21 53 -7 12 22 27 11 21 -15 -5 -18 -3 -20
16 -14 15 5 21 2 21 -9 0 -13 3 -14 19 -4 15 9 24 7 46 -10 15 -12 33 -22 40
-22 7 0 15 -6 18 -14 3 -7 18 -17 33 -20 15 -4 33 -14 39 -22 6 -8 21 -16 34
-17 14 -1 27 -10 32 -24 10 -27 17 -28 41 -6 17 15 18 15 18 -1 0 -10 7 -17
18 -15 30 3 68 -2 55 -8 -23 -9 -14 -23 15 -24 l27 -1 -27 -10 c-16 -5 -28
-14 -28 -19 0 -14 64 -11 78 3 10 10 15 10 22 -2 5 -8 6 -18 4 -22 -3 -4 0 -8
5 -8 6 0 11 -7 11 -15 0 -22 -18 -18 -25 5 -7 23 -60 29 -68 8 -4 -10 -6 -10
-6 0 -1 6 -8 12 -16 12 -11 0 -15 -12 -15 -45 0 -39 -4 -46 -29 -59 -29 -15
-47 -44 -35 -55 4 -3 9 0 11 7 4 10 8 10 19 1 22 -18 7 -29 -39 -29 -23 0 -62
-5 -86 -11 -26 -6 -47 -6 -50 -1 -3 5 -35 12 -71 15 -36 3 -87 12 -114 19 -39
10 -50 10 -53 1 -3 -7 -20 -13 -39 -13 -26 0 -43 -8 -66 -32 -25 -26 -29 -34
-16 -36 9 -2 19 -13 22 -25 4 -17 8 -19 15 -9 6 10 15 6 39 -17 17 -17 40 -31
51 -31 12 0 21 -4 21 -9 0 -5 36 -22 80 -38 54 -19 74 -30 62 -34 -12 -5 -6
-9 22 -14 24 -5 41 -4 45 3 4 7 13 5 26 -4 19 -14 19 -15 -3 -20 -36 -10 -25
-24 18 -24 22 0 40 -4 40 -10 0 -5 11 -10 24 -10 16 0 27 -7 31 -20 3 -11 11
-20 16 -20 5 0 9 -8 9 -18 0 -10 9 -24 21 -32 45 -32 59 -48 59 -68 0 -11 -3
-22 -7 -25 -5 -2 -2 -2 5 0 8 1 26 3 40 3 22 0 24 2 12 11 -11 8 5 9 60 6 78
-6 151 -26 118 -34 -35 -9 -17 -20 34 -21 29 0 55 -6 60 -14 8 -10 11 -10 15
0 6 14 33 16 33 2 0 -5 6 -10 13 -10 7 0 21 -17 32 -37 33 -64 69 -112 87
-118 28 -10 101 -98 133 -161 16 -33 37 -65 47 -72 19 -14 38 -71 38 -117 0
-16 7 -39 16 -50 8 -11 31 -69 50 -130 37 -117 94 -244 119 -265 13 -11 15 -6
15 31 -1 24 -7 71 -15 104 -17 72 -18 85 -5 85 6 0 10 -10 10 -23 0 -12 13
-50 30 -83 17 -36 35 -96 43 -145 15 -91 30 -129 52 -129 7 0 24 -14 38 -31
22 -29 25 -30 40 -14 22 21 22 39 1 31 -15 -6 -15 -4 -3 10 8 9 15 42 16 73 1
31 5 116 8 189 5 91 3 132 -4 132 -6 0 -11 8 -11 18 0 9 -9 28 -20 42 -11 14
-20 31 -20 39 0 8 -16 49 -36 90 -47 100 -50 107 -73 166 -10 28 -31 72 -45
99 -14 27 -26 55 -26 62 0 7 -9 29 -20 49 -11 20 -20 41 -20 48 0 7 -9 30 -20
52 -11 22 -20 46 -20 55 0 9 -4 20 -9 26 -5 5 -16 52 -25 104 -18 110 -9 206
24 248 36 45 26 64 -43 86 -17 5 -17 7 -3 22 15 15 22 44 10 44 -12 0 -119
-54 -122 -62 -2 -4 -10 -8 -18 -8 -8 0 -33 -13 -56 -30 -22 -16 -49 -30 -59
-30 -10 0 -20 -8 -23 -18 -5 -13 -15 -17 -44 -15 -41 2 -101 28 -81 35 25 8
-54 75 -97 82 -30 5 -35 4 -24 -4 12 -9 12 -11 1 -8 -8 2 -20 22 -26 44 -8 31
-12 35 -18 21 -4 -10 -7 -28 -7 -38 0 -11 -4 -17 -10 -14 -5 3 -10 22 -10 41
0 28 -4 34 -22 35 -13 0 -17 3 -10 6 17 7 15 33 -3 33 -21 0 -19 30 3 31 12 0
10 3 -7 10 -13 5 -33 7 -45 4 -12 -3 -15 -2 -8 1 6 3 12 12 12 20 0 8 7 14 15
14 20 0 19 10 -2 25 -15 12 -14 15 15 45 18 17 32 36 32 41 0 13 14 11 29 -3
11 -10 13 -10 7 0 -5 8 0 12 13 12 12 0 21 7 21 15 0 8 6 12 14 9 8 -3 20 3
27 14 10 16 17 18 31 11 14 -7 18 -6 18 6 0 8 4 15 10 15 5 0 9 5 7 12 -1 7 8
17 20 22 12 6 26 19 32 31 8 17 10 17 10 3 1 -22 4 -22 41 0 16 10 27 22 23
26 -4 3 7 12 25 18 17 7 36 22 43 35 7 13 17 23 23 22 29 -3 46 2 46 15 0 20
19 30 52 28 17 -1 36 6 48 18 11 11 26 20 33 20 7 0 19 6 25 12 10 10 17 10
33 0 18 -11 24 -11 38 2 10 9 25 16 34 16 9 0 17 5 17 10 0 6 18 10 40 10 22
0 40 -4 40 -10 0 -5 7 -7 16 -3 15 6 15 8 -2 20 -18 13 -17 14 6 8 14 -3 53
-2 88 3 34 5 62 5 62 1 0 -9 53 -19 115 -20 28 -1 56 -6 62 -11 7 -6 19 -8 28
-5 8 4 33 0 56 -8 23 -9 44 -13 47 -10 3 3 10 1 16 -4 6 -4 24 -11 39 -15 22
-5 27 -4 21 6 -4 7 1 6 12 -3 10 -9 33 -20 49 -24 28 -7 28 -8 9 -15 -12 -5
-24 -19 -27 -32 -6 -21 -96 -103 -111 -100 -3 1 -17 -10 -30 -23 -14 -14 -31
-25 -38 -25 -15 0 -42 -39 -33 -48 3 -4 9 -1 13 5 4 6 21 15 37 19 17 4 41 14
55 23 14 9 36 22 50 28 14 6 58 27 98 47 84 41 86 42 78 20 -4 -10 -2 -14 6
-11 7 2 12 9 11 15 -4 17 38 26 49 11 7 -11 11 -11 15 -1 2 6 8 12 13 12 14 0
225 103 228 111 2 5 11 9 21 9 9 0 24 9 34 20 10 12 21 18 26 16 5 -3 14 1 21
9 7 8 18 15 25 15 14 0 146 73 183 101 13 10 44 28 70 40 26 12 54 28 62 35
17 14 271 144 281 144 4 0 36 18 70 40 35 22 101 58 147 81 45 23 82 45 82 50
0 5 6 9 14 9 8 0 54 21 103 46 48 26 120 64 160 84 39 21 86 49 104 63 18 14
38 23 46 20 7 -3 13 0 13 6 0 7 8 15 18 18 21 8 97 82 97 95 0 5 11 15 25 22
14 7 24 18 22 25 -1 6 5 14 14 18 13 5 13 7 2 14 -11 7 -11 9 0 9 8 0 32 15
55 34 37 30 170 121 200 137 7 4 50 26 97 49 47 24 87 47 88 52 2 4 10 8 18 8
8 0 36 9 61 21 25 11 54 18 64 16 10 -3 40 1 66 9 25 8 61 14 80 14 18 0 33 4
33 8 0 22 192 44 204 24 3 -5 23 -9 45 -10 47 -2 161 -51 161 -69 0 -17 22
-17 39 0 10 10 12 9 10 -3 -4 -19 22 -60 38 -60 7 0 13 -7 13 -15 0 -8 5 -15
10 -15 7 0 7 -7 -1 -21 -6 -13 -7 -19 -1 -15 10 6 42 -46 42 -67 0 -5 7 -15
15 -21 8 -6 16 -20 18 -31 2 -11 8 -28 12 -38 4 -10 5 -52 2 -93 -6 -77 15
-307 34 -378 27 -100 82 -252 95 -262 8 -7 16 -20 18 -30 2 -11 21 -50 41 -89
60 -112 85 -162 85 -172 0 -6 9 -18 20 -28 11 -10 20 -25 20 -34 0 -9 8 -17
18 -18 12 -1 24 15 40 50 23 53 31 91 57 282 9 61 22 155 31 210 20 142 37
321 35 383 -1 31 2 52 8 52 15 0 14 43 -1 59 -10 11 -10 14 0 18 6 3 12 19 12
36 0 17 4 44 9 61 21 69 42 147 72 256 5 19 12 51 14 70 3 19 9 55 15 80 12
54 39 212 51 295 4 33 15 98 24 145 9 47 23 121 30 165 8 44 26 143 40 220 26
144 46 277 46 307 0 10 5 20 10 23 5 4 7 10 4 15 -3 5 1 38 9 72 8 35 17 82
20 103 2 22 14 92 26 157 11 64 23 133 25 155 9 67 54 295 76 385 5 21 7 49 3
64 -4 14 -2 29 3 33 9 6 22 67 44 206 9 57 19 108 52 275 16 75 34 188 42 246
2 17 11 69 20 115 28 138 60 322 70 399 8 61 18 106 27 117 6 7 5 14 -3 18 -6
4 -7 10 -2 14 5 3 17 60 27 126 10 66 23 138 28 160 6 22 13 68 15 103 3 34 8
62 13 62 4 0 11 24 15 53 4 28 11 68 15 87 5 19 12 56 15 82 3 26 12 59 20 74
8 15 12 31 9 35 -5 9 23 144 40 189 7 19 11 41 9 48 -3 6 3 12 12 12 14 0 15
3 6 14 -6 7 -9 21 -5 30 6 15 -829 16 -11192 12 -7311 -2 -11261 -7 -11379
-13 -228 -13 -645 -53 -666 -64 -9 -4 -31 -6 -49 -4 -17 2 -39 0 -48 -4 -15
-8 -189 -28 -317 -37 -53 -4 -184 -20 -265 -32 -36 -6 -90 -11 -120 -12 -30 0
-73 -3 -95 -6 -22 -2 -76 -6 -120 -9 -44 -3 -91 -7 -105 -10 -27 -5 -342 -30
-510 -40 -58 -3 -125 -8 -150 -10 -101 -9 -288 -18 -329 -16 -25 1 -105 -3
-179 -9 -96 -8 -138 -8 -145 -1 -17 17 -45 13 -57 -9 -9 -16 -15 -18 -30 -10
-11 6 -30 10 -43 9 -12 -1 -41 -1 -64 -1 -39 2 -43 4 -43 28 0 15 -8 33 -17
40 -17 13 -17 15 0 28 9 7 17 16 17 20 0 3 -8 6 -17 6 -15 0 -16 2 -3 10 8 5
17 5 20 1 3 -5 39 -11 80 -14 41 -2 58 -2 38 0 -37 4 -38 5 -38 44 l0 39 58 1
c31 1 49 3 40 6 -23 6 -23 29 -1 37 14 6 14 8 -3 21 -16 12 -123 14 -696 15
l-678 0 0 -10000z m23562 7716 c2 -68 0 -122 -4 -120 -10 6 -20 -32 -20 -75 0
-20 -5 -39 -10 -42 -6 -4 -10 -28 -10 -55 1 -26 -4 -54 -11 -63 -10 -12 -9
-14 7 -8 15 6 17 4 10 -10 -4 -10 -7 -30 -6 -45 1 -16 -5 -29 -15 -32 -14 -6
-14 -8 3 -21 12 -9 15 -18 9 -22 -14 -11 -17 -26 -23 -110 -2 -40 -9 -73 -14
-73 -5 0 -7 -13 -3 -30 6 -25 3 -32 -17 -39 -13 -6 -17 -10 -10 -10 15 -1 17
-87 1 -97 -7 -4 -9 -21 -6 -40 3 -19 1 -36 -4 -40 -6 -3 -7 -19 -4 -35 5 -22
3 -28 -8 -24 -10 5 -13 -1 -9 -23 2 -15 -4 -64 -14 -107 -9 -44 -18 -93 -20
-110 -2 -16 -9 -77 -15 -135 -6 -58 -15 -106 -20 -108 -5 -2 -9 -37 -9 -79 0
-53 -4 -79 -15 -89 -11 -11 -12 -20 -5 -34 7 -14 6 -23 -5 -34 -10 -10 -14
-25 -10 -43 3 -15 2 -22 -1 -15 -3 6 -9 12 -14 12 -12 0 -10 -203 2 -217 7 -9
7 -13 -1 -13 -6 0 -11 -9 -11 -20 0 -11 5 -20 10 -20 6 0 10 -20 10 -45 0 -40
11 -58 23 -37 2 4 2 1 1 -6 -2 -7 5 -21 16 -32 11 -11 20 -25 20 -31 0 -5 5
-7 11 -4 15 10 61 -4 54 -15 -11 -18 23 -40 59 -40 20 0 36 -4 36 -10 0 -5
-18 -10 -40 -10 -29 0 -40 -4 -40 -15 0 -8 -4 -15 -10 -15 -5 0 -10 -7 -10
-15 0 -21 18 -19 32 5 17 27 42 25 58 -5 13 -25 40 -35 40 -15 0 6 -7 10 -15
10 -8 0 -15 5 -15 10 0 6 18 10 39 10 35 0 39 2 34 23 -5 21 -5 21 13 -3 24
-34 34 -40 67 -40 26 0 38 15 16 22 -6 2 8 3 30 3 22 0 35 -3 29 -6 -6 -4 -7
-12 -3 -19 6 -9 9 -9 16 1 6 11 15 10 44 -4 20 -9 41 -17 49 -17 7 0 22 -11
34 -23 20 -21 28 -23 67 -17 25 4 45 3 45 -2 0 -4 -10 -8 -22 -8 -13 0 -30 -5
-38 -11 -11 -7 -4 -9 29 -7 37 2 46 -1 54 -19 11 -25 54 -43 102 -43 31 0 33
-2 38 -45 4 -25 2 -57 -3 -71 -9 -23 -15 -26 -49 -22 -23 2 -37 -1 -35 -7 5
-11 -68 -37 -76 -27 -3 4 -18 8 -35 8 -16 0 -50 4 -74 9 -41 8 -43 7 -36 -14
4 -12 2 -21 -4 -21 -6 0 -11 7 -11 15 0 15 -16 20 -57 16 -13 -1 -23 3 -23 9
0 14 -83 13 -98 -2 -8 -8 -15 -8 -26 1 -10 9 -16 9 -21 1 -4 -7 -13 -4 -25 10
-18 21 -40 27 -40 10 0 -25 -18 -6 -24 25 -6 30 -11 35 -34 35 -19 0 -23 3
-13 9 19 12 4 51 -20 51 -10 0 -19 7 -19 15 0 8 5 15 10 15 6 0 10 18 10 40 0
33 3 40 20 40 22 0 27 15 8 26 -6 4 -17 0 -23 -10 -8 -10 -20 -14 -31 -10 -16
5 -16 4 -4 -5 13 -9 13 -11 -3 -11 -10 0 -20 -7 -23 -15 -4 -8 -15 -15 -25
-15 -14 0 -19 -7 -19 -26 l0 -25 -26 20 c-15 12 -32 21 -39 21 -7 0 -15 6 -18
13 -7 20 -157 7 -157 -14 0 -5 -9 -9 -19 -9 -11 0 -22 -4 -26 -9 -7 -13 -107
-1 -118 13 -6 7 -7 6 -4 -4 2 -8 17 -17 33 -20 l29 -6 -25 -13 c-17 -10 -25
-11 -28 -2 -6 17 -71 13 -89 -5 -11 -10 -26 -14 -45 -10 -15 3 -28 1 -28 -4 0
-6 -18 -10 -40 -10 -29 0 -40 4 -40 15 0 8 -9 15 -20 15 -11 0 -20 5 -20 10 0
6 -16 10 -35 10 -29 0 -35 -4 -35 -21 0 -16 -4 -19 -17 -15 -9 4 -55 9 -102
11 -47 3 -87 10 -89 15 -4 12 -39 13 -44 1 -4 -11 -134 -19 -144 -8 -4 4 0 7
10 7 15 0 15 2 1 30 -18 35 -30 38 -46 9 -9 -17 -8 -23 2 -30 11 -7 10 -9 -3
-9 -10 0 -18 6 -18 14 0 8 -11 17 -25 20 -14 4 -25 11 -25 16 0 5 11 12 25 16
27 7 34 24 10 24 -8 0 -15 9 -15 20 0 11 7 20 15 20 8 0 15 9 15 20 0 16 7 20
31 20 26 0 29 3 24 20 -5 14 -2 20 9 20 9 0 16 7 16 15 0 9 -9 15 -24 15 -65
0 -77 35 -16 45 22 4 40 11 40 16 0 13 38 11 42 -3 6 -16 58 -1 58 17 0 8 -9
13 -22 13 -13 -1 -43 -1 -67 0 -42 2 -43 3 -25 16 19 15 19 15 -1 30 -18 14
-18 15 -2 16 9 0 17 5 17 11 0 8 29 10 96 7 61 -2 87 -1 72 5 -13 5 -60 7
-106 5 l-82 -3 0 37 c0 36 1 37 30 32 16 -4 45 -3 65 0 33 7 35 9 35 46 0 37
2 40 28 41 l27 1 -28 10 c-30 11 -28 28 4 28 28 0 23 16 -8 28 -69 26 -70 26
-24 30 29 2 47 -1 53 -10 5 -7 13 -20 18 -28 8 -13 11 -13 19 0 6 8 6 17 1 20
-13 8 -15 173 -2 178 5 1 13 -2 17 -7 3 -6 20 -11 37 -11 23 0 29 4 24 16 -3
9 -6 20 -6 25 0 11 -27 12 -33 2 -2 -5 -2 -2 0 5 1 8 3 19 3 26 0 16 62 17 72
2 5 -7 8 -4 8 7 0 17 -4 19 -50 21 -16 1 -26 8 -28 20 -5 23 16 37 44 30 12
-3 25 -1 28 5 4 6 0 11 -8 11 -9 0 -16 5 -16 11 0 6 9 9 20 6 12 -3 29 5 47
22 l28 26 -31 3 c-27 3 -32 8 -37 38 -3 19 -3 44 2 55 6 19 8 19 20 5 8 -9 24
-16 37 -16 34 0 32 42 -2 69 l-27 21 30 -6 c16 -3 46 -1 66 4 22 6 37 7 37 1
0 -5 7 -9 15 -9 11 0 15 11 15 40 l0 40 -55 0 c-30 0 -55 5 -55 10 0 6 18 10
40 10 l40 0 0 40 c0 40 0 40 39 40 22 0 42 -5 44 -12 3 -7 6 6 6 30 1 38 3 42
26 42 25 0 25 1 25 80 0 47 4 80 10 80 6 0 10 -21 10 -46 0 -33 5 -51 18 -60
16 -12 16 -14 -5 -34 -16 -15 -23 -32 -23 -60 0 -21 -6 -41 -12 -43 -8 -3 -6
-6 5 -6 9 -1 17 -7 17 -13 0 -7 5 -5 11 5 7 12 17 16 31 11 14 -4 18 -3 13 6
-4 7 -17 9 -33 5 -23 -6 -24 -5 -11 11 11 13 11 18 2 21 -20 7 -15 31 7 38 43
14 46 85 4 85 -11 0 -14 12 -13 55 2 47 5 55 22 55 13 0 17 -5 13 -15 -3 -9 0
-15 9 -15 11 0 15 -13 17 -42 l1 -43 4 38 c3 23 -1 45 -9 54 -10 13 -10 17 0
20 6 3 12 16 12 29 0 22 -4 24 -51 24 -36 0 -49 4 -46 13 2 6 14 11 25 9 15
-2 22 2 22 12 0 9 5 16 10 16 6 0 10 -6 10 -12 0 -13 44 -38 65 -38 10 0 35
54 35 74 0 5 -18 6 -39 4 -49 -4 -43 4 12 17 32 8 45 18 57 42 10 21 24 33 40
35 20 3 16 6 -20 15 l-45 11 43 1 c23 1 42 6 42 11 0 6 -19 11 -42 12 l-43 1
45 5 c35 3 41 6 25 12 -11 5 5 6 38 3 39 -4 57 -2 57 6 0 6 7 11 15 11 8 0 15
5 15 10 0 6 -7 10 -15 10 -8 0 -15 4 -15 9 0 5 19 7 43 5 l42 -5 -37 18 c-34
16 -38 22 -38 55 0 35 2 38 29 38 28 0 30 -3 34 -42 2 -31 4 -24 5 25 2 52 5
67 17 67 8 0 15 7 15 15 0 21 48 20 52 -1 3 -14 6 -13 28 5 l25 21 -27 -6
c-34 -8 -36 6 -7 47 20 29 14 40 -9 17 -18 -18 -15 32 3 56 19 26 19 34 -2 39
-12 3 -10 5 7 6 20 1 29 -6 40 -31 l13 -33 5 35 c2 19 8 41 14 47 7 9 7 17 1
26 -6 6 -10 19 -10 27 -1 8 -4 24 -9 34 -5 13 -4 17 4 12 6 -3 13 -2 17 4 3 5
1 10 -4 10 -6 0 -11 7 -11 15 0 8 4 15 9 15 5 0 23 3 40 6 20 4 31 3 31 -5 0
-6 -12 -11 -27 -12 -16 0 -22 -3 -15 -6 7 -3 24 -2 37 1 21 5 25 12 25 46 0
22 4 40 9 40 6 0 11 -55 13 -124z m-14442 -706 l0 -50 40 0 40 0 0 40 0 40 40
0 c22 0 40 5 40 10 0 6 33 10 80 10 47 0 80 -4 80 -10 0 -6 -33 -10 -80 -10
-64 0 -80 -3 -80 -15 0 -12 20 -15 120 -15 100 0 120 3 120 15 0 11 11 15 40
15 22 0 40 5 40 10 0 6 18 10 40 10 36 0 40 -2 40 -25 0 -25 1 -25 80 -25 79
0 80 0 80 -25 0 -25 1 -25 80 -25 47 0 80 4 80 10 0 6 18 10 40 10 l40 0 0
-65 0 -65 127 0 c151 0 163 -6 163 -82 0 -47 1 -48 30 -48 28 0 30 -2 30 -40
0 -22 5 -40 10 -40 6 0 10 18 10 40 0 29 4 40 15 40 11 0 15 -11 15 -40 l0
-40 80 0 80 0 0 -30 c0 -28 2 -30 40 -30 22 0 40 -4 40 -10 0 -5 18 -10 40
-10 38 0 40 -2 40 -30 0 -28 2 -30 40 -30 38 0 40 2 40 30 l0 30 80 0 80 0 0
-40 0 -40 40 0 c22 0 40 5 40 10 0 6 18 10 40 10 36 0 40 -2 40 -25 0 -22 4
-25 40 -25 36 0 40 -2 40 -25 0 -22 4 -25 40 -25 l40 0 0 50 0 50 40 0 c22 0
40 -4 40 -10 0 -5 7 -10 15 -10 11 0 15 11 15 40 0 36 3 40 25 40 23 0 25 4
25 40 0 33 3 40 20 40 22 0 21 6 25 -190 2 -77 8 -128 18 -155 17 -42 20 -84
38 -575 6 -151 12 -297 13 -325 12 -190 36 -2255 28 -2375 -1 -14 -4 -396 -7
-849 -4 -705 -7 -827 -19 -846 -9 -14 -45 -34 -88 -51 -40 -15 -94 -38 -119
-51 -26 -13 -50 -23 -53 -23 -3 0 -44 -18 -91 -40 -47 -22 -88 -40 -91 -40 -2
0 -34 -13 -69 -30 -35 -16 -69 -30 -75 -30 -5 0 -10 -4 -10 -10 0 -5 -5 -10
-11 -10 -11 0 -40 -12 -146 -61 -34 -16 -65 -29 -69 -29 -4 0 -28 -9 -53 -21
-25 -11 -68 -31 -96 -44 -27 -12 -66 -30 -86 -39 -59 -26 -127 -68 -99 -61 19
5 22 4 10 -4 -8 -6 -27 -8 -42 -5 -14 3 -29 0 -33 -5 -3 -6 0 -11 7 -11 15 -1
-43 -31 -127 -66 -33 -14 -84 -37 -113 -51 -30 -13 -60 -22 -68 -19 -8 3 -13
2 -10 -3 3 -5 -76 -43 -177 -86 -100 -43 -205 -88 -232 -101 -28 -12 -75 -32
-105 -44 -30 -12 -90 -37 -133 -57 -43 -19 -85 -32 -93 -29 -8 3 -13 2 -10 -3
6 -10 -16 -20 -339 -156 -126 -54 -293 -125 -370 -158 -77 -33 -176 -75 -220
-94 -44 -18 -89 -38 -100 -43 -11 -5 -63 -27 -115 -49 -52 -21 -169 -71 -260
-110 -91 -39 -172 -72 -180 -74 -8 -1 -17 -5 -20 -8 -8 -10 -504 -219 -508
-214 -3 2 20 15 50 28 31 14 58 30 62 35 4 6 14 8 23 5 10 -4 14 -2 10 4 -5 7
1 9 15 5 14 -3 19 -1 14 6 -5 8 -1 10 10 5 14 -5 16 -3 11 11 -4 10 -3 15 3
11 13 -8 91 16 85 26 -3 4 5 5 17 2 19 -4 20 -3 8 7 -13 10 -13 11 0 9 34 -3
52 2 47 14 -3 8 5 14 21 15 14 1 30 8 35 15 7 9 10 9 14 0 3 -9 18 -4 49 18
24 16 44 25 44 20 0 -7 9 -7 25 1 14 6 25 15 25 20 0 4 10 8 22 8 12 0 18 3
14 7 -12 12 -70 12 -83 1 -9 -7 -13 -7 -13 1 0 6 -4 11 -10 11 -5 0 -10 -8
-10 -18 0 -22 -37 -59 -48 -48 -4 4 3 16 16 27 33 26 19 39 -44 39 l-54 0 0
55 0 55 -40 0 c-36 0 -40 3 -40 25 0 25 -1 25 -80 25 l-80 0 0 40 0 40 -120 0
-120 0 0 -40 0 -40 -40 0 -40 0 0 40 0 40 -40 0 -40 0 0 40 0 40 -40 0 c-29 0
-40 4 -40 15 0 11 -11 15 -40 15 -36 0 -40 3 -40 25 0 23 -4 25 -40 25 l-40 0
0 40 0 40 -40 0 c-40 0 -40 0 -40 40 l0 39 -67 3 -68 3 28 26 c23 22 27 35 27
78 l0 51 -40 0 -40 0 0 40 0 40 -40 0 -40 0 0 40 0 40 -40 0 -40 0 0 40 0 40
-40 0 -40 0 0 40 0 40 40 0 40 0 0 80 0 80 -40 0 -40 0 0 40 0 40 -40 0 -40 0
0 40 0 40 -40 0 -40 0 0 55 0 55 -40 0 c-29 0 -40 -4 -40 -15 0 -12 -16 -15
-80 -15 l-80 0 0 80 0 80 -40 0 -40 0 0 40 0 40 -40 0 -40 0 0 80 0 80 -40 0
-40 0 0 80 0 80 -40 0 -40 0 0 80 0 80 -40 0 -40 0 0 40 0 40 40 0 40 0 0 80
0 80 -40 0 -40 0 0 120 0 120 -25 0 c-22 0 -25 4 -25 40 0 29 -4 40 -15 40
-11 0 -15 -11 -15 -40 0 -22 -4 -40 -10 -40 -5 0 -10 18 -10 40 0 22 5 40 10
40 6 0 10 47 10 120 l0 120 -40 0 -40 0 0 -40 c0 -22 -4 -40 -10 -40 -5 0 -10
18 -10 40 0 22 5 40 10 40 6 0 10 18 10 40 0 29 4 40 15 40 11 0 15 11 15 40
0 29 -4 40 -15 40 -10 0 -15 10 -15 30 0 28 -2 30 -40 30 -22 0 -40 5 -40 10
0 6 18 10 40 10 l40 0 0 40 0 40 -40 0 -40 0 0 120 0 120 40 0 40 0 0 240 c0
207 2 240 15 240 11 0 15 11 15 40 0 29 -4 40 -15 40 -12 0 -15 16 -15 80 l0
80 40 0 40 0 0 -40 c0 -29 4 -40 15 -40 11 0 15 11 15 40 0 29 -4 40 -15 40
-12 0 -15 20 -15 120 l0 120 30 0 c28 0 30 2 30 40 0 22 5 40 10 40 6 0 10 33
10 80 0 47 -4 80 -10 80 -5 0 -10 18 -10 40 0 22 5 40 10 40 6 0 10 -18 10
-40 0 -38 2 -40 30 -40 28 0 30 2 30 40 0 22 5 40 10 40 6 0 10 33 10 80 l0
80 40 0 40 0 0 40 c0 22 -4 40 -10 40 -5 0 -10 18 -10 40 l0 40 50 0 50 0 0
80 0 80 40 0 40 0 0 40 c0 22 -4 40 -10 40 -5 0 -10 18 -10 40 l0 40 50 0 50
0 0 40 0 40 40 0 40 0 0 80 0 80 40 0 40 0 0 40 0 40 40 0 40 0 0 40 0 40 40
0 40 0 0 80 0 80 40 0 40 0 0 -40 c0 -29 4 -40 15 -40 11 0 15 11 15 40 0 29
-4 40 -15 40 -11 0 -15 11 -15 40 l0 40 40 0 40 0 0 40 0 40 40 0 40 0 0 40 0
40 40 0 40 0 0 40 0 40 40 0 40 0 0 40 0 40 80 0 80 0 0 50 0 50 40 0 c38 0
40 2 40 30 0 28 2 30 40 30 l40 0 0 40 0 40 40 0 c36 0 40 3 40 25 0 23 4 25
40 25 36 0 40 3 40 25 0 23 4 25 40 25 38 0 40 2 40 30 l0 30 80 0 80 0 0 40
0 40 40 0 40 0 0 40 0 40 80 0 80 0 0 40 0 40 80 0 c79 0 80 0 80 25 0 23 4
25 40 25 29 0 40 4 40 15 0 11 11 15 40 15 29 0 40 -4 40 -15 0 -11 11 -15 40
-15 l40 0 0 65 0 65 40 0 c22 0 40 -4 40 -10 0 -5 18 -10 40 -10 31 0 40 -4
40 -17 1 -17 1 -17 14 0 9 11 27 17 55 17 l41 0 0 40 c0 29 4 40 15 40 11 0
15 11 15 40 l0 40 50 0 c38 0 50 -4 50 -15 0 -11 11 -15 40 -15 29 0 40 -4 40
-15 0 -12 16 -15 80 -15 47 0 80 -4 80 -10 0 -5 18 -10 40 -10 36 0 40 3 40
25 0 23 4 25 40 25 36 0 40 3 40 25 l0 25 200 0 200 0 0 -50z m9220 -2821 c25
-5 51 -11 59 -12 24 -6 61 -48 61 -71 0 -34 -21 -99 -41 -128 -11 -16 -16 -33
-12 -44 5 -13 3 -15 -7 -9 -9 5 -11 4 -6 -4 4 -7 -2 -20 -16 -31 -18 -16 -32
-19 -63 -14 -22 4 -46 11 -53 17 -10 8 -16 7 -23 -4 -8 -12 -10 -12 -19 1 -5
8 -10 22 -10 31 0 8 -11 26 -25 39 -17 16 -25 34 -25 57 0 18 -4 33 -9 33 -5
0 -13 14 -16 32 -6 25 -3 34 11 44 11 8 24 17 29 21 17 14 99 53 110 52 6 0
30 -4 55 -10z m-100 -571 c0 -10 5 -18 10 -18 15 0 12 -77 -2 -83 -8 -3 -6 -6
5 -6 9 -1 17 -6 17 -12 0 -6 -9 -9 -20 -6 -23 6 -27 -11 -5 -19 21 -8 19 -24
-2 -24 -14 0 -15 -2 -4 -9 9 -6 10 -10 2 -16 -7 -3 -9 -15 -6 -25 5 -15 2 -17
-15 -13 -18 5 -20 2 -15 -29 4 -26 1 -39 -15 -53 -16 -14 -18 -21 -8 -28 8 -5
2 -7 -17 -3 -16 3 -24 3 -17 0 17 -8 15 -24 -4 -24 -9 0 -18 -9 -21 -20 -6
-23 -72 -45 -107 -36 -20 5 -22 11 -19 53 2 26 4 56 4 66 0 9 5 17 11 17 6 0
4 8 -5 18 -18 20 -23 87 -7 97 5 3 7 12 3 20 -3 8 0 15 7 15 7 0 10 7 6 15 -3
9 7 27 24 45 17 17 30 37 30 45 0 8 9 15 20 15 11 0 20 3 20 8 0 14 45 28 87
27 34 0 43 -4 43 -17z m-1665 -87 c11 -5 32 -13 47 -19 60 -24 108 -204 73
-273 -29 -55 -107 -121 -182 -153 -37 -16 -75 -36 -83 -46 -17 -19 -77 -41
-100 -36 -15 3 -38 11 -75 26 -11 4 -54 18 -95 29 -200 57 -221 70 -222 138 0
46 10 68 65 138 68 87 132 130 242 162 156 47 269 58 330 34z m4047 -3394 c4
-95 9 -196 11 -226 3 -29 0 -68 -6 -87 -12 -33 -12 -33 -36 -15 l-24 18 13
195 c7 107 10 208 7 223 -5 32 9 82 21 71 4 -4 10 -85 14 -179z m3744 -246
c-3 -5 -18 -12 -32 -15 -15 -4 -33 -14 -41 -21 -8 -8 -23 -15 -34 -15 -10 0
-19 -4 -19 -8 0 -4 17 -7 38 -5 47 4 25 -7 -78 -37 -41 -13 -102 -31 -135 -42
-35 -11 -61 -15 -63 -9 -2 5 -9 8 -17 5 -7 -3 -16 -1 -19 5 -6 10 74 51 99 51
8 0 15 3 17 8 4 10 232 84 281 91 5 0 6 -3 3 -8z m-13045 -264 c48 -32 46 -63
-6 -99 -51 -35 -124 -39 -155 -8 -36 36 -20 79 41 110 47 25 80 24 120 -3z
m184 -123 c54 -25 54 -94 -1 -94 -13 0 -36 -7 -50 -16 -32 -21 -70 -7 -85 33
-11 31 -9 34 51 67 55 30 46 29 85 10z m1184 -39 c65 -32 79 -67 41 -105 -16
-16 -33 -20 -84 -20 -53 0 -67 4 -90 25 -41 38 -33 88 18 111 44 19 60 17 115
-11z m8895 -14 c10 -11 20 -39 23 -63 3 -24 13 -52 22 -63 38 -46 71 -102 71
-123 0 -25 -36 -102 -48 -102 -17 1 -30 18 -37 50 -4 19 -17 58 -30 85 -12 28
-25 73 -28 102 -3 28 -10 60 -16 70 -12 24 -4 63 14 63 6 0 20 -9 29 -19z
m912 -198 c4 -15 3 -53 -2 -84 -9 -55 -9 -59 13 -70 29 -16 40 -41 107 -242
74 -222 70 -245 -53 -367 -46 -46 -75 -80 -134 -157 -18 -23 -46 -49 -63 -59
-27 -15 -33 -15 -60 -1 -16 8 -39 25 -51 36 -12 12 -30 21 -40 21 -39 0 -64
14 -78 41 -29 56 -14 117 74 304 26 55 58 125 71 155 13 30 55 115 92 187 57
111 68 141 68 182 0 71 42 111 56 54z m-1486 -116 c79 -29 185 -134 166 -166
-6 -8 42 -25 104 -36 34 -6 38 -3 89 54 62 72 97 93 140 85 23 -5 31 -13 36
-35 4 -15 1 -37 -5 -48 -9 -18 -8 -21 10 -21 28 0 25 -17 -8 -48 -16 -15 -43
-58 -61 -97 -18 -38 -40 -78 -49 -88 -16 -18 -74 -47 -93 -47 -18 0 -40 49
-47 106 l-7 59 -75 -1 c-41 -1 -86 -3 -100 -4 -14 -1 -63 -1 -108 -1 -78 1
-200 -22 -248 -47 -11 -5 -33 -17 -51 -26 -77 -40 -52 3 63 105 59 53 98 71
152 68 26 -1 58 1 72 4 14 3 47 9 75 12 40 6 47 9 35 18 -9 7 -23 24 -33 40
-10 15 -24 27 -32 27 -8 0 -26 11 -41 24 -14 13 -35 31 -45 40 -41 35 -8 47
61 23z m-7743 -8 c54 -20 60 -73 12 -113 -78 -66 -147 9 -97 107 10 19 43 22
85 6z m8681 -98 c7 -4 20 -20 27 -35 12 -23 12 -32 0 -64 -7 -20 -16 -75 -20
-122 -9 -123 -79 -418 -106 -444 -5 -6 -9 -19 -9 -30 0 -12 -16 -72 -35 -135
-19 -63 -32 -118 -29 -122 2 -4 0 -10 -6 -14 -5 -3 -10 -19 -10 -36 0 -16 -5
-29 -12 -29 -9 0 -8 -3 2 -10 12 -7 12 -12 2 -22 -6 -6 -12 -22 -12 -35 0 -13
-4 -23 -10 -23 -5 0 -6 8 -3 18 6 15 5 16 -12 2 -17 -14 -18 -13 -12 12 4 14
11 62 17 105 10 81 23 149 46 242 8 30 12 56 10 59 -9 9 -26 -10 -26 -30 0
-11 -10 -34 -22 -51 -12 -17 -24 -40 -25 -51 -5 -27 -12 -33 -23 -16 -8 13 -6
144 4 203 9 57 -44 16 -59 -46 -4 -14 -15 -33 -24 -41 -17 -15 -18 -14 -19 15
0 18 12 84 28 147 16 63 33 149 36 191 5 56 12 79 25 89 10 6 23 29 30 50 21
64 83 151 138 192 52 39 83 48 109 31z m1622 -32 c19 -6 69 -24 110 -41 41
-16 96 -38 121 -47 25 -10 80 -39 122 -64 42 -26 80 -47 83 -47 4 0 32 -20 63
-45 31 -24 69 -54 84 -66 31 -24 33 -55 5 -73 -13 -8 -21 -6 -35 7 -23 23 -78
61 -123 85 -200 110 -285 152 -306 152 -8 0 -14 4 -14 8 0 9 -65 27 -164 43
-71 12 -176 6 -224 -12 -36 -14 -164 -28 -180 -20 -8 5 11 18 48 36 33 16 60
32 60 36 0 4 8 10 18 12 85 23 112 32 112 38 0 20 152 18 220 -2z m-11156 -69
c59 -29 96 -67 96 -95 0 -21 -5 -25 -29 -25 -16 0 -35 7 -42 17 -8 9 -37 27
-66 39 -52 23 -74 48 -66 72 7 18 64 15 107 -8z m8063 -46 c61 -29 93 -64 134
-145 59 -117 26 -136 -40 -24 -62 106 -123 146 -137 90 -13 -51 -101 -88 -132
-55 -17 19 -72 17 -72 -1 0 -5 -4 -9 -10 -9 -33 0 8 119 54 156 28 23 37 25
91 20 33 -4 83 -17 112 -32z m-368 -86 c46 -26 57 -52 71 -173 21 -175 23
-234 11 -249 -14 -16 -41 -10 -54 11 -6 10 -27 12 -88 9 -74 -5 -79 -4 -79 14
0 11 -6 19 -12 18 -14 -3 -25 81 -27 215 -2 154 71 217 178 155z m3331 -88
c116 -24 180 -33 252 -32 54 0 100 -4 103 -8 3 -5 -3 -18 -15 -30 -27 -27
-132 -27 -345 1 -154 20 -274 21 -425 4 -70 -8 -202 -35 -223 -47 -26 -14 -35
-1 -11 17 14 11 15 14 4 15 -20 0 85 70 105 70 9 0 25 5 37 11 11 6 35 13 53
15 18 2 44 8 57 14 43 19 243 4 408 -30z m-2882 -168 c10 -10 33 -22 52 -28
20 -6 34 -16 36 -28 1 -10 7 -23 13 -29 16 -16 13 -53 -4 -67 -12 -10 -15 -10
-15 1 0 11 -2 11 -10 -1 -8 -12 -10 -12 -16 3 -3 9 -4 26 -1 38 4 16 3 18 -8
9 -8 -6 -19 -36 -25 -66 -10 -47 -15 -54 -35 -54 -16 0 -25 7 -29 25 -5 18
-13 25 -30 25 -17 0 -25 7 -28 25 -3 14 -1 28 4 31 4 3 6 9 4 13 -7 10 13 93
26 108 15 18 45 16 66 -5z m-10564 -44 c-6 -10 -4 -10 8 0 13 10 23 9 59 -8
42 -19 332 -197 381 -232 l23 -18 -30 12 c-16 7 -36 16 -42 21 -7 5 -20 7 -28
3 -9 -3 -13 -2 -10 4 3 6 -1 10 -9 10 -9 0 -16 7 -16 16 0 8 -4 13 -9 10 -14
-9 -72 15 -65 26 4 6 -1 8 -15 3 -23 -7 -49 3 -34 14 5 3 -6 19 -24 35 -25 21
-32 24 -27 10 6 -16 5 -17 -7 -6 -7 6 -19 12 -27 12 -7 0 -10 -6 -7 -12 4 -7
1 -6 -7 3 -7 8 -21 18 -31 22 -9 4 -22 17 -27 29 -7 18 -9 19 -9 6 -1 -27 -31
-22 -32 5 0 12 -3 16 -6 10 -2 -7 -15 -13 -28 -13 -13 0 -26 -4 -29 -9 -3 -4
-18 -11 -33 -14 -16 -3 -34 -16 -41 -28 -12 -19 -12 -21 3 -16 10 4 14 3 10
-4 -4 -6 -13 -8 -21 -5 -7 3 -16 0 -20 -6 -4 -7 -9 -6 -14 2 -6 10 -18 8 -54
-8 -25 -12 -50 -22 -54 -22 -5 0 -22 -6 -38 -14 -16 -7 -42 -16 -59 -20 -16
-3 31 23 105 59 74 35 164 80 200 99 76 41 73 40 64 24z m4549 -120 c52 -61
26 -104 -60 -101 -63 3 -88 19 -97 63 -11 58 4 69 89 62 34 -3 56 -10 68 -24z
m-5030 -188 c25 -16 50 -30 56 -30 6 0 11 -3 11 -8 0 -4 14 -13 31 -21 17 -7
52 -28 79 -46 27 -18 73 -47 103 -64 55 -32 97 -68 63 -55 -9 3 -16 10 -16 15
0 5 -3 8 -7 7 -5 -1 -20 6 -35 16 -15 10 -32 15 -38 11 -5 -3 -10 -1 -10 5 0
7 -9 9 -22 5 -18 -5 -20 -4 -8 5 13 9 13 12 -2 20 -9 6 -23 16 -30 24 -7 7
-19 11 -27 8 -9 -3 -11 0 -6 8 6 10 2 12 -13 8 -14 -4 -20 -2 -15 5 4 7 0 8
-11 4 -9 -4 -15 -3 -12 2 3 5 -10 16 -29 25 -19 9 -37 21 -40 26 -4 6 -11 8
-16 5 -5 -4 -9 -3 -9 2 0 4 -18 17 -40 27 -37 18 -41 18 -72 3 -18 -9 -27 -17
-19 -17 8 0 11 -3 8 -6 -4 -4 -13 -1 -22 6 -11 9 -15 9 -15 1 0 -7 -17 -20
-38 -29 -21 -10 -37 -23 -34 -30 2 -6 -1 -12 -8 -12 -6 0 -8 5 -5 10 7 12 3
12 -20 4 -13 -6 -14 -9 -3 -16 8 -5 3 -6 -14 -2 -21 5 -28 2 -28 -8 0 -14
-128 -64 -138 -54 -4 5 250 132 258 129 3 -1 11 4 19 10 53 44 116 47 174 7z
m11388 -28 c78 -51 144 -138 169 -225 32 -105 51 -161 61 -171 15 -16 10 -26
-11 -26 -22 0 -37 25 -73 122 -40 104 -83 171 -157 243 -39 37 -64 65 -55 61
8 -3 15 -1 15 4 0 15 22 12 51 -8z m-6297 -288 c9 -3 16 -12 16 -19 0 -7 -82
-61 -182 -121 -101 -59 -192 -114 -204 -121 -18 -12 -24 -11 -45 6 l-24 19 25
21 c14 11 28 20 32 21 11 0 231 128 283 164 50 35 70 41 99 30z m-7344 -204
c14 -19 16 -29 7 -47 -12 -27 -42 -30 -102 -9 -70 25 -100 93 -45 106 35 8
119 -22 140 -50z m5344 44 c26 -10 18 -25 -9 -18 -15 4 -25 2 -25 -5 0 -6 6
-11 13 -12 6 0 2 -4 -10 -9 -13 -5 -23 -14 -23 -20 0 -5 -8 -10 -17 -11 -11 0
-13 -3 -5 -6 22 -9 13 -21 -23 -27 -19 -4 -35 -11 -35 -16 0 -5 -7 -7 -15 -4
-8 4 -15 1 -15 -5 0 -6 -9 -11 -19 -11 -11 0 -23 -4 -26 -10 -3 -5 -17 -10
-30 -10 -29 0 -56 -10 -51 -19 3 -4 -3 -7 -12 -8 -45 -5 -74 -12 -87 -23 -10
-8 -15 -9 -15 -2 0 13 70 56 245 151 139 76 135 74 159 65z m-2768 -256 c29
-18 56 -39 59 -47 10 -26 -6 -50 -42 -62 -33 -10 -41 -9 -102 23 -46 24 -67
41 -69 56 -5 31 23 28 78 -8 44 -29 80 -39 80 -21 0 5 -13 14 -29 21 -37 15
-65 45 -56 59 10 17 23 13 81 -21z m2212 -55 c-21 -8 -38 -21 -38 -27 0 -17
-48 -50 -94 -66 -28 -9 -35 -15 -25 -21 11 -7 10 -9 -4 -9 -11 0 -31 -6 -45
-14 -31 -17 -81 -30 -101 -27 -8 1 -10 -2 -5 -10 5 -9 2 -10 -10 -6 -10 4 -26
2 -37 -3 -10 -6 -19 -9 -19 -6 0 5 110 70 200 119 36 19 85 47 110 61 25 14
59 26 75 25 l30 0 -37 -16z m-3704 -58 c8 -8 20 -15 26 -15 6 0 24 -7 40 -15
36 -19 42 -68 11 -85 -29 -15 -98 -12 -131 5 -55 28 -79 93 -42 114 26 15 78
13 96 -4z m871 -195 c13 -21 34 -44 45 -50 24 -13 27 -48 4 -57 -8 -3 -37 3
-62 15 -26 11 -65 26 -87 34 -28 10 -41 20 -43 36 -3 19 1 22 31 22 26 0 36 5
40 20 9 34 44 24 72 -20z m-1700 0 c43 -18 45 -21 34 -42 -24 -45 -75 -62
-117 -38 -9 5 -30 14 -45 20 -23 8 -27 15 -25 37 5 45 77 56 153 23z m-1622
-82 c41 -15 36 -36 -18 -74 -46 -32 -70 -36 -109 -20 -25 10 -36 21 -36 35 0
12 -4 21 -10 21 -5 0 -10 5 -10 10 0 6 10 10 23 10 12 0 33 7 45 16 13 9 32
14 43 11 12 -3 17 -1 12 6 -4 7 0 8 13 3 10 -5 31 -13 47 -18z m1804 -40 c100
-31 122 -58 89 -103 -16 -23 -65 -22 -137 1 -59 20 -84 52 -68 88 7 14 19 27
28 29 9 3 17 5 18 6 2 0 33 -9 70 -21z m3963 -187 c11 -7 12 -12 1 -24 -7 -9
-19 -13 -28 -10 -8 3 -18 2 -22 -3 -3 -5 -18 -20 -33 -33 l-27 -23 -60 37
c-76 47 -86 58 -66 75 13 11 23 10 57 -3 47 -19 59 -15 35 11 -20 22 -22 39
-4 45 10 4 68 -25 147 -72z m-3101 30 c8 -5 16 -18 17 -28 2 -10 13 -25 25
-33 58 -38 61 -43 44 -67 -20 -29 -48 -29 -87 -2 -16 12 -49 27 -71 34 -58 17
-58 50 -2 82 44 25 53 27 74 14z m1509 -61 c66 -43 71 -52 46 -77 -13 -13 -20
-14 -35 -5 -25 16 -27 15 -31 -9 -6 -45 -31 -45 -99 -2 -50 31 -64 46 -64 64
0 19 5 24 25 23 14 -1 33 -5 44 -9 15 -7 17 -5 12 13 -17 54 19 54 102 2z
m-2980 -132 c15 -13 16 -60 0 -76 -18 -18 -107 -16 -114 3 -4 8 -10 13 -14 10
-9 -5 -20 29 -20 61 0 12 10 28 22 36 20 13 27 13 68 -5 25 -11 51 -24 58 -29z
m3940 -123 c34 -21 62 -40 62 -42 0 -21 -25 -43 -49 -43 -18 0 -34 -8 -43 -22
l-15 -22 -64 40 c-50 31 -64 45 -64 65 0 21 5 24 34 25 21 0 37 6 39 15 5 15
23 29 32 25 3 -2 33 -20 68 -41z m-3086 -25 c31 -13 106 -80 91 -80 -7 0 -13
-8 -13 -19 0 -24 -15 -36 -70 -55 l-45 -15 -55 38 c-44 31 -56 45 -58 71 -4
38 10 57 52 69 32 10 59 7 98 -9z m1497 -31 c71 -36 92 -65 71 -103 -14 -27
-37 -36 -92 -36 -100 0 -181 84 -135 142 29 37 78 36 156 -3z m981 -262 c37
-19 66 -41 68 -51 10 -49 -26 -86 -84 -86 -31 0 -126 55 -143 82 -16 26 -5 55
27 73 39 21 60 18 132 -18z m-1692 -54 c36 -22 91 -84 92 -103 0 -16 -47 -60
-65 -60 -14 0 -98 55 -115 75 -18 22 -4 80 23 93 30 15 34 14 65 -5z m-1477
-26 c15 -12 39 -30 53 -40 65 -46 -6 -107 -82 -71 -20 9 -52 31 -70 49 l-34
32 17 32 c15 31 19 32 53 26 20 -4 48 -16 63 -28z m2557 -272 c37 -52 35 -89
-4 -107 -18 -8 -29 -6 -57 11 -19 11 -37 18 -40 15 -10 -10 -57 25 -57 41 0 8
7 15 15 15 9 0 12 6 8 16 -4 10 1 17 16 21 11 3 21 10 21 15 0 6 9 8 20 5 11
-3 23 -1 26 4 10 16 20 9 52 -36z m15517 -35 c4 -6 -5 -10 -19 -10 -14 0 -26
-4 -26 -10 0 -5 18 -10 40 -10 22 0 40 5 40 10 0 6 5 10 11 10 7 0 8 -14 4
-40 -6 -34 -4 -40 10 -40 15 0 17 6 11 40 -6 38 -5 40 20 40 21 0 24 -4 20
-20 -3 -11 -9 -29 -12 -40 -3 -11 -1 -20 5 -20 6 0 11 5 11 10 0 6 5 10 10 10
21 0 9 -29 -17 -42 -15 -7 -34 -26 -41 -41 -7 -15 -17 -27 -23 -27 -5 0 -9 -7
-9 -15 0 -8 -5 -15 -10 -15 -6 0 -13 -7 -17 -15 -7 -21 -111 -125 -123 -125
-6 0 -10 -3 -10 -8 0 -18 -40 -32 -61 -22 -20 11 -20 11 3 30 14 12 18 19 10
20 -17 0 -7 60 12 75 7 6 18 28 23 50 7 27 11 32 12 17 1 -14 5 -21 12 -16 6
3 8 17 5 29 -7 28 3 85 15 85 5 0 9 -9 9 -19 0 -11 5 -23 10 -26 7 -5 9 15 4
59 -6 57 -5 66 10 66 9 0 16 5 16 10 0 6 9 10 19 10 11 0 23 -4 26 -10z
m-17210 -10 c-4 -7 2 -9 19 -4 22 5 25 3 20 -10 -4 -9 -3 -16 2 -15 24 4 29
-5 32 -49 3 -57 -10 -73 -60 -73 -45 -1 -98 11 -98 22 0 5 -5 9 -11 9 -15 0
-48 41 -49 61 0 31 25 49 74 54 27 2 51 7 54 10 10 9 23 5 17 -5z m-1515 -30
c19 -10 24 -84 7 -98 -7 -6 -37 -13 -68 -17 -52 -6 -57 -5 -77 19 -11 15 -19
34 -17 44 2 9 4 23 4 29 1 8 12 12 28 11 16 -2 30 4 37 15 11 18 49 16 86 -3z
m803 -368 c9 -8 20 -13 23 -9 8 7 49 -32 57 -54 8 -24 -39 -67 -55 -51 -7 7
-22 12 -35 12 -13 0 -23 3 -23 8 0 4 -14 15 -30 24 -34 19 -40 56 -14 83 18
17 48 13 77 -13z m1770 -549 c16 -3 27 -12 27 -22 0 -9 5 -22 11 -28 15 -15
-6 -51 -37 -64 -19 -7 -35 -5 -59 7 -46 21 -54 33 -48 72 6 35 34 55 63 46 8
-3 27 -8 43 -11z"/>
<path d="M29314 19858 c1 -79 5 -151 10 -160 6 -14 3 -18 -15 -19 -16 0 -19
-3 -9 -6 31 -12 37 -35 14 -57 -14 -15 -14 -16 2 -16 13 0 14 -3 4 -15 -10
-12 -10 -18 -1 -29 8 -10 9 -16 1 -21 -12 -8 -14 -55 -1 -55 15 0 23 -33 10
-41 -9 -5 -10 -23 -4 -61 4 -29 9 -69 10 -88 1 -19 3 -39 5 -45 1 -5 1 -19 0
-29 -1 -12 3 -17 12 -14 10 4 12 -4 9 -36 -2 -22 -9 -45 -15 -49 -6 -5 -1 -6
12 -2 22 6 22 6 22 -114 0 -90 -3 -121 -12 -122 -7 0 -3 -4 10 -10 24 -9 22
-29 -4 -29 -8 0 -14 -7 -14 -15 0 -8 7 -15 15 -15 11 0 15 -12 15 -45 0 -38 3
-45 20 -45 16 0 20 7 20 34 0 19 3 41 6 50 4 11 0 16 -12 17 -11 0 -14 3 -7 5
29 12 47 -13 44 -60 -1 -28 2 -46 8 -46 6 0 11 18 11 40 0 29 4 40 15 40 11 0
15 -11 15 -40 0 -33 3 -40 20 -40 17 0 20 7 20 49 0 41 4 53 25 69 31 25 32
39 3 45 -13 2 -9 3 9 1 26 -2 32 2 37 22 4 14 16 26 31 30 32 8 32 24 0 24
-30 0 -32 11 -4 36 16 15 22 16 29 5 6 -11 10 -9 19 7 6 11 11 27 11 36 0 8
12 24 28 36 24 20 34 21 100 15 59 -5 78 -4 98 10 29 19 25 31 -16 40 -38 8
-38 22 -1 30 44 9 61 44 61 119 0 42 -4 66 -12 69 -10 4 -10 6 0 6 9 1 12 71
12 316 l0 315 -334 0 -333 0 1 -142z"/>
<path d="M22030 12033 c0 -10 -11 -30 -24 -45 -14 -14 -22 -28 -20 -31 3 -3
-4 -10 -15 -17 -12 -6 -21 -20 -21 -31 0 -20 -40 -105 -64 -138 -6 -7 -11 -20
-12 -28 -2 -8 -10 -23 -18 -32 -9 -10 -13 -21 -9 -24 3 -4 1 -7 -5 -7 -7 0
-12 -6 -12 -14 0 -7 -7 -19 -15 -26 -8 -7 -15 -20 -15 -29 0 -9 -9 -34 -20
-56 -11 -22 -20 -46 -20 -54 0 -34 34 20 60 96 23 67 30 78 52 81 15 2 28 -3
31 -11 11 -29 -90 -358 -145 -472 -43 -90 -48 -142 -20 -183 30 -43 31 -55 8
-102 -25 -53 -42 -60 -57 -26 l-12 25 -22 -47 c-12 -26 -32 -78 -45 -115 -24
-67 -24 -70 -8 -146 14 -70 42 -151 88 -256 10 -22 21 -50 24 -62 9 -28 47
-30 104 -7 l39 15 5 67 c9 130 83 217 140 165 17 -15 19 -15 36 0 10 9 24 40
32 69 22 90 77 207 129 278 27 38 55 88 61 112 6 24 17 61 25 83 8 22 19 72
25 110 19 114 42 142 76 90 14 -21 15 -40 10 -104 -10 -108 -60 -350 -81 -391
-12 -24 -19 -68 -23 -145 -5 -99 -4 -109 11 -97 8 7 18 36 22 65 11 75 35 127
60 127 3 0 5 -35 3 -77 -3 -67 -1 -78 15 -81 9 -2 17 3 17 10 0 21 52 63 73
60 9 -2 20 5 24 15 3 10 21 41 38 68 18 28 42 67 54 88 13 21 29 44 36 51 8 7
24 35 36 62 13 27 31 58 41 68 22 24 23 40 2 32 -9 -3 -24 0 -35 8 -17 11 -18
14 -4 19 8 4 15 17 15 29 1 33 55 131 107 195 36 44 145 248 137 256 -3 3 8
33 25 68 17 35 28 65 26 68 -3 2 -7 -4 -11 -13 -3 -9 -10 -16 -15 -16 -10 0
-31 -15 -52 -38 -7 -7 -41 -45 -77 -84 -120 -131 -215 -218 -239 -218 -6 0
-11 9 -11 20 0 10 -6 25 -14 32 -11 11 -10 19 5 55 18 42 14 54 -9 31 -19 -19
-24 -3 -8 33 41 97 44 103 98 170 21 25 35 49 31 53 -3 3 0 6 8 6 14 0 46 57
37 66 -15 15 -67 -13 -98 -52 -19 -24 -43 -44 -53 -44 -27 0 -81 -55 -96 -97
-18 -51 -63 -122 -78 -123 -6 0 -15 -9 -18 -20 -4 -12 -38 -60 -76 -107 -38
-47 -69 -92 -69 -99 0 -8 -6 -14 -14 -14 -14 0 -66 -68 -66 -88 0 -7 -6 -12
-13 -12 -7 0 -18 -12 -24 -27 -6 -16 -21 -44 -32 -63 -11 -19 -27 -53 -36 -75
-9 -22 -26 -60 -38 -85 -12 -25 -20 -49 -19 -53 1 -5 -2 -6 -8 -2 -5 3 -13 -1
-16 -10 -5 -12 -14 -14 -34 -10 -31 7 -33 3 -46 -70 -3 -22 -12 -47 -19 -55
-7 -8 -21 -33 -32 -55 -10 -22 -25 -40 -33 -40 -15 0 -42 -56 -41 -87 0 -10
-3 -18 -7 -18 -4 0 -8 -8 -9 -17 -3 -41 -9 -58 -20 -66 -7 -4 -13 -20 -14 -35
l0 -27 -10 25 c-6 15 -7 32 -1 45 6 11 15 40 21 65 17 64 41 140 56 175 7 17
17 58 24 92 6 34 22 81 35 105 23 42 23 45 11 128 -7 47 -22 103 -34 126 -12
23 -24 64 -28 92 -5 48 -4 52 18 61 60 22 148 190 154 292 1 20 5 41 9 47 4 6
4 22 0 36 -3 14 -2 31 2 38 4 7 7 52 5 101 -2 69 0 87 10 82 9 -6 10 -1 5 18
-3 14 -2 28 3 31 5 3 12 27 17 53 10 63 11 67 13 73 7 15 7 52 -1 56 -4 3 -8
-3 -8 -13z"/>
<path d="M21605 11463 c-4 -10 -17 -76 -29 -148 -13 -71 -30 -150 -39 -175
-30 -89 -38 -120 -32 -130 7 -12 42 39 90 130 16 30 38 68 49 84 38 56 57 101
58 133 0 39 -37 94 -57 86 -10 -3 -15 2 -15 16 0 25 -15 28 -25 4z"/>
<path d="M22793 10885 c-7 -8 -13 -18 -13 -23 0 -5 -7 -15 -15 -22 -8 -7 -30
-42 -49 -79 -18 -36 -68 -130 -109 -209 -42 -79 -77 -153 -79 -165 -4 -39 14
-156 27 -173 11 -15 17 -11 54 39 23 31 41 58 40 59 0 2 9 28 21 58 12 30 24
68 27 85 3 16 11 41 18 55 7 14 18 45 25 70 9 38 33 102 90 245 5 13 2 31 -6
48 -17 31 -15 31 -31 12z"/>
<path d="M20520 10761 c0 -23 -5 -31 -17 -31 -15 0 -15 -2 -4 -9 12 -8 12 -12
2 -25 -8 -10 -11 -28 -8 -46 4 -16 3 -32 -2 -34 -12 -8 -20 -56 -10 -56 5 0 9
-5 9 -11 0 -6 -6 -9 -14 -6 -15 6 -32 -42 -40 -113 -3 -25 -8 -56 -12 -70 -16
-57 15 0 52 96 23 59 44 99 51 97 23 -8 35 35 24 88 -6 28 -11 70 -11 94 0 24
-4 47 -10 50 -6 4 -10 -7 -10 -24z"/>
<path d="M17898 10702 c-16 -2 -28 -10 -28 -18 0 -19 -10 -18 -26 4 -12 15
-12 12 -3 -15 12 -35 19 -39 36 -22 8 8 19 0 39 -28 16 -21 31 -40 34 -43 4
-3 19 -23 35 -45 32 -44 144 -155 156 -155 8 0 136 -129 151 -152 6 -10 10
-10 17 1 10 16 -17 105 -49 158 -11 19 -20 43 -20 53 0 10 -4 22 -10 25 -5 3
-10 13 -10 21 0 54 -91 174 -131 174 -11 0 -27 4 -37 9 -58 30 -106 40 -154
33z"/>
<path d="M17620 10614 c0 -4 21 -28 48 -53 60 -60 150 -163 207 -238 24 -32
60 -79 79 -105 20 -25 36 -51 36 -57 0 -6 4 -11 8 -11 5 0 21 -22 36 -49 15
-28 35 -52 45 -56 10 -3 66 -55 124 -115 57 -61 110 -110 116 -110 5 0 8 -6 5
-14 -4 -11 0 -13 15 -9 17 4 20 2 15 -12 -6 -16 -3 -17 22 -11 28 7 28 7 9 -8
-19 -16 -19 -16 8 -10 22 5 26 3 21 -10 -3 -9 -10 -13 -15 -10 -5 3 -9 3 -9
-1 0 -3 12 -10 26 -15 19 -8 25 -16 21 -29 -3 -14 -1 -18 9 -14 19 7 22 -5
-36 127 -18 41 -20 56 -12 88 6 21 6 35 1 32 -5 -3 -9 -15 -9 -27 -1 -21 -1
-21 -14 3 -8 14 -12 29 -9 33 3 5 -18 31 -46 58 -28 26 -51 51 -51 55 0 3 -12
21 -27 39 -16 18 -40 47 -55 65 -16 17 -28 41 -28 52 0 11 -4 16 -11 12 -6 -3
-34 18 -62 48 -29 31 -66 62 -82 71 -17 8 -85 59 -150 113 -128 104 -221 174
-230 174 -3 0 -5 -3 -5 -6z"/>
<path d="M20167 10563 c-4 -3 -7 -24 -7 -45 0 -25 -4 -38 -12 -37 -7 1 -18 1
-25 0 -18 -2 -63 -154 -63 -210 0 -27 -4 -70 -9 -97 -5 -27 -12 -80 -15 -119
-10 -106 -26 -226 -36 -263 -7 -28 -6 -33 6 -28 9 3 17 6 19 6 2 0 26 30 53
68 27 37 65 87 85 110 21 24 37 49 37 55 0 6 -10 31 -22 56 -21 43 -21 49 -10
177 6 72 19 173 28 224 14 78 15 93 3 101 -17 11 -24 11 -32 2z"/>
<path d="M22736 9919 c-22 -5 -48 -16 -57 -25 -10 -9 -23 -17 -31 -18 -42 -7
-88 -41 -107 -78 -11 -23 -18 -45 -15 -50 17 -27 119 21 167 79 10 12 37 41
60 63 45 42 44 43 -17 29z"/>
<path d="M14091 6909 c-30 -9 -123 -64 -483 -282 -37 -22 -66 -43 -64 -45 2
-2 21 7 43 21 21 13 106 64 188 112 83 48 170 100 195 116 115 72 196 86 295
51 28 -10 185 -98 350 -196 165 -99 451 -269 635 -379 607 -362 810 -481 810
-474 0 9 -383 240 -1600 965 -69 41 -146 82 -171 92 -59 24 -154 32 -198 19z"/>
<path d="M20103 6066 c-15 -13 -47 -36 -69 -52 -69 -48 -334 -247 -368 -276
-24 -21 -27 -26 -12 -25 10 1 21 -5 23 -13 3 -10 2 -11 -4 -4 -19 26 -76 6
-66 -24 4 -13 3 -14 -5 -3 -8 11 -23 3 -75 -35 -61 -46 -84 -71 -55 -62 7 3
19 -2 27 -10 12 -12 12 -15 0 -24 -11 -7 -9 -8 6 -3 11 3 16 2 11 -2 -4 -4
-21 -8 -37 -8 -29 0 -29 0 -8 16 l22 16 -24 6 c-15 4 -31 -1 -48 -14 -14 -11
-47 -36 -74 -55 -26 -20 -44 -41 -40 -46 3 -7 1 -8 -6 -4 -9 6 -101 -60 -131
-94 -3 -3 -21 -17 -40 -30 -19 -13 -37 -25 -39 -26 -2 -2 4 -10 13 -19 9 -9
16 -12 16 -6 0 6 8 11 18 12 15 0 15 1 -2 8 -17 7 -16 10 13 31 27 19 35 20
43 9 8 -11 8 -10 4 5 -4 10 -1 25 5 32 12 15 34 20 25 6 -6 -9 39 -10 49 0 3
3 -1 5 -11 5 -9 -1 -19 3 -21 9 -2 7 4 11 14 10 11 0 18 6 18 16 0 20 3 22 28
13 9 -4 23 -2 31 4 7 6 22 8 32 5 15 -5 14 -3 -4 10 -12 10 -27 14 -34 10 -7
-4 -8 -3 -4 4 4 7 20 10 39 7 29 -5 30 -4 14 9 -16 13 -16 14 5 19 12 4 19 9
15 13 -3 4 4 15 17 25 32 25 44 24 21 -1 -10 -11 -13 -20 -7 -20 7 0 12 -4 12
-10 0 -5 -7 -7 -15 -4 -8 4 -15 1 -15 -5 0 -16 26 -14 44 4 8 8 26 15 40 15
34 0 38 12 21 52 -15 38 -5 60 24 51 14 -4 14 -3 1 7 -12 9 -11 10 9 5 16 -5
21 -4 17 4 -5 7 -1 8 10 4 14 -5 16 -3 11 11 -4 11 -3 15 4 11 6 -4 8 -13 5
-21 -7 -17 10 -27 28 -17 8 4 30 23 50 40 19 18 42 30 49 27 8 -3 17 2 20 10
4 9 13 16 22 16 8 0 15 7 15 15 0 8 7 15 15 15 18 0 19 12 3 28 -9 9 -9 12 0
12 7 0 12 -4 12 -10 0 -21 20 -9 26 15 4 15 16 28 29 31 28 7 57 37 53 55 -2
7 6 15 17 17 23 5 87 70 81 81 -3 4 8 19 25 32 62 50 104 89 97 89 -3 0 -19
-11 -35 -24z"/>
<path d="M24035 4813 c-57 -7 -130 -36 -175 -70 -50 -38 -114 -97 -305 -282
-71 -70 -186 -179 -255 -243 -271 -251 -264 -242 -280 -358 -6 -46 -13 -133
-15 -191 -2 -104 -4 -108 -39 -162 -105 -158 -12 -229 544 -413 25 -8 52 -18
60 -21 35 -13 206 -75 340 -122 80 -29 159 -58 175 -65 37 -17 210 -76 223
-76 5 0 27 -8 48 -17 22 -9 44 -17 49 -18 6 -1 22 -6 36 -12 41 -18 577 -206
660 -232 14 -5 34 -13 45 -19 10 -6 39 -18 64 -26 25 -8 83 -29 130 -46 47
-17 130 -46 185 -64 55 -19 111 -39 125 -44 14 -6 93 -34 175 -62 83 -28 157
-54 165 -57 22 -9 153 -57 243 -88 42 -15 77 -31 77 -36 0 -5 7 -6 15 -3 8 4
30 -1 48 -9 17 -9 46 -18 62 -22 17 -4 39 -10 50 -15 11 -5 52 -21 90 -35 39
-15 90 -35 115 -45 25 -10 61 -21 80 -25 19 -4 40 -11 45 -15 6 -4 75 -28 155
-55 148 -49 239 -81 275 -96 25 -11 235 -86 290 -104 57 -19 420 -146 555
-195 533 -193 632 -221 805 -227 115 -4 138 -3 195 17 70 23 110 53 110 81 0
9 4 19 9 21 4 2 37 41 72 88 35 47 69 91 76 98 7 8 18 23 25 35 6 12 22 30 35
40 12 10 23 27 23 38 0 11 5 17 10 14 6 -3 10 -2 10 2 0 5 13 23 30 41 25 28
85 113 115 163 6 9 37 56 70 104 33 48 65 95 70 104 6 8 15 20 22 26 6 5 34
49 61 97 41 73 52 102 62 170 6 46 16 107 22 136 6 28 8 55 3 60 -4 4 -9 2
-12 -4 -2 -5 -39 -59 -83 -120 -43 -60 -134 -185 -202 -279 -276 -383 -346
-473 -394 -501 -62 -37 -134 -52 -229 -48 -169 6 -307 41 -605 153 -47 17
-121 45 -165 61 -44 16 -174 64 -290 108 -115 43 -326 122 -467 175 -231 87
-435 171 -448 184 -3 2 9 1 25 -2 26 -7 28 -6 13 6 -20 17 -34 84 -20 93 12 7
21 74 26 180 1 40 8 72 14 74 7 2 9 15 5 33 -3 16 -1 29 4 29 5 0 10 30 11 67
1 37 6 69 10 72 12 9 33 91 31 126 -1 41 25 195 38 220 6 11 9 62 7 115 -1 52
0 99 4 104 3 6 7 24 9 41 4 44 10 73 28 140 8 33 18 71 21 85 3 13 10 30 15
36 13 15 -22 49 -71 71 -85 37 -913 326 -1165 407 -60 19 -249 82 -420 141
-170 58 -386 131 -480 161 -93 30 -179 59 -190 63 -11 5 -60 21 -110 37 -49
15 -104 33 -122 41 -17 7 -35 13 -39 13 -7 0 -138 50 -189 71 -126 55 -338 94
-440 82z"/>
<path d="M16735 3540 c-93 -8 -81 -1 -325 -191 -58 -44 -123 -94 -145 -111
-22 -16 -53 -40 -70 -53 -35 -28 -319 -245 -549 -420 -87 -66 -164 -125 -170
-130 -6 -6 -45 -36 -86 -66 -41 -31 -83 -66 -93 -76 -18 -21 -40 -83 -32 -91
10 -11 83 35 215 136 77 59 186 141 243 183 56 41 190 141 297 221 461 342
599 445 675 499 77 54 139 111 119 108 -5 -1 -40 -5 -79 -9z"/>
<path d="M16254 2503 c-46 -42 -75 -65 -117 -93 -20 -14 -37 -28 -37 -33 0 -4
-11 -12 -25 -17 -14 -5 -25 -14 -25 -19 0 -5 -9 -12 -20 -16 -11 -3 -34 -20
-52 -36 -34 -31 -136 -119 -179 -154 -28 -23 -125 -99 -224 -175 -38 -29 -74
-59 -78 -67 -4 -7 -15 -13 -23 -13 -8 0 -17 -7 -20 -15 -4 -8 -10 -15 -16 -15
-9 0 -289 -219 -321 -252 -10 -10 -21 -18 -25 -18 -4 0 -23 -15 -44 -33 -36
-32 -93 -80 -152 -127 -17 -14 -33 -28 -36 -31 -11 -15 -113 -79 -126 -79 -7
0 -24 -5 -38 -11 -16 -8 -37 -8 -63 -2 -33 8 -38 13 -39 38 0 17 12 53 27 80
30 56 64 152 73 205 3 19 8 46 11 60 13 62 15 113 4 126 -20 24 -85 17 -147
-18 -31 -18 -59 -34 -62 -37 -3 -4 -32 -28 -65 -55 -59 -49 -151 -139 -231
-226 -35 -37 -91 -95 -151 -151 -26 -26 -52 -46 -99 -79 -27 -19 -54 -39 -61
-45 -6 -5 -22 -18 -35 -28 -115 -88 -155 -119 -214 -162 -38 -27 -94 -71 -125
-97 -30 -26 -60 -48 -66 -48 -6 0 -13 -4 -15 -9 -1 -4 -30 -28 -64 -52 -147
-106 -231 -170 -254 -192 -14 -14 -50 -41 -80 -60 -31 -19 -62 -42 -69 -51 -7
-9 -20 -16 -27 -16 -8 0 -14 -4 -14 -9 0 -5 -16 -18 -35 -30 -20 -11 -41 -25
-48 -31 -42 -35 -123 -94 -141 -104 -46 -25 -103 -66 -140 -102 -7 -6 -22 -15
-34 -18 -12 -4 -22 -12 -22 -17 0 -5 -7 -9 -15 -9 -8 0 -15 -4 -15 -8 0 -4
-13 -16 -30 -25 -16 -10 -35 -23 -42 -30 -20 -19 -97 -67 -107 -67 -5 0 -14
-7 -21 -15 -11 -13 141 -15 1355 -15 l1367 0 42 33 c22 17 50 40 61 49 11 9
54 44 95 78 41 34 84 70 95 79 11 9 52 43 90 76 39 33 91 76 115 95 24 19 78
64 120 100 42 36 161 135 265 220 103 85 223 184 265 220 42 36 188 157 325
270 648 536 636 525 676 629 23 63 26 182 4 234 -19 46 -19 56 0 31 8 -10 24
-50 36 -88 18 -55 20 -80 14 -130 -4 -33 -7 -74 -7 -90 3 -73 -67 -206 -109
-206 -9 0 -22 -7 -30 -16 -12 -14 -14 -14 -26 2 -17 23 -16 31 3 38 12 5 14 1
9 -15 l-7 -21 21 21 c22 22 28 37 11 26 -19 -11 -10 6 15 31 14 14 25 28 25
31 0 7 -11 -2 -125 -98 -49 -41 -146 -122 -215 -179 -69 -57 -143 -120 -165
-139 -50 -44 -122 -104 -194 -162 -54 -44 -64 -60 -40 -68 7 -2 9 1 4 9 -6 9
-4 11 4 5 9 -5 10 -10 2 -18 -7 -7 -15 -6 -26 3 -13 11 -22 6 -63 -31 -26 -25
-68 -62 -94 -83 -26 -21 -46 -41 -43 -45 2 -4 -2 -8 -9 -8 -27 0 -75 -47 -70
-68 4 -15 3 -16 -4 -6 -9 13 -30 -3 -257 -200 -73 -64 -182 -157 -204 -175
-13 -10 -31 -26 -40 -34 -24 -24 -208 -180 -271 -230 -30 -25 -59 -50 -65 -56
-5 -6 -38 -34 -73 -63 l-63 -51 330 0 c288 0 331 2 331 15 0 8 9 15 20 15 12
0 25 10 32 25 6 14 17 25 24 25 7 0 15 9 19 20 5 16 9 18 25 7 27 -16 50 5 34
31 -9 14 -4 23 28 51 21 19 37 40 34 47 -3 7 1 15 9 18 8 3 15 0 17 -6 6 -18
28 1 28 23 0 14 7 19 26 19 21 0 25 4 21 19 -3 13 1 21 14 24 13 3 17 11 13
21 -5 13 1 16 25 16 36 0 42 17 9 23 -18 3 -16 5 8 6 27 1 32 6 43 41 10 35
16 40 41 40 20 0 30 5 30 15 0 9 11 21 25 27 14 6 25 18 25 25 0 8 4 11 10 8
5 -3 18 -2 27 4 17 9 17 10 1 16 -27 11 -21 23 14 30 27 6 71 35 53 35 -3 0
-1 9 6 21 7 14 18 20 33 17 16 -3 25 2 33 19 8 17 8 23 0 24 -7 0 1 5 16 11
21 7 26 15 22 29 -5 15 -1 19 19 19 25 0 49 20 24 20 -7 1 -2 7 11 14 13 7 32
11 43 8 13 -3 18 1 18 16 0 11 8 23 18 27 16 7 15 8 -3 15 -17 7 -13 11 28 30
27 12 51 28 54 36 3 8 13 14 22 14 24 0 41 20 41 47 0 16 7 24 25 29 14 3 25
10 25 14 0 4 19 27 43 51 24 25 46 53 50 62 3 9 16 17 28 17 26 0 79 52 79 79
0 24 18 31 93 33 50 1 54 2 20 5 -38 4 -43 7 -43 29 0 21 4 24 39 24 29 0 40
-4 43 -17 2 -13 15 -5 54 33 28 27 54 56 58 64 4 10 8 11 11 4 3 -6 12 -20 20
-30 14 -18 14 -18 15 9 0 23 4 27 30 27 28 0 30 2 30 40 0 22 5 40 10 40 6 0
10 18 10 40 0 29 4 40 15 40 11 0 15 11 15 41 0 39 -1 40 -27 36 -16 -2 -22
-2 -15 0 6 3 12 10 12 18 0 7 7 15 15 19 19 7 20 46 1 46 -8 0 -17 8 -20 18
-2 9 -2 0 1 -20 4 -31 2 -38 -11 -38 -9 0 -16 8 -16 20 0 11 -7 20 -15 20 -22
0 -18 38 4 45 12 4 18 12 14 21 -3 8 1 14 11 14 9 0 16 5 16 10 0 6 19 11 43
11 42 2 42 2 -10 8 -29 4 -58 12 -65 19 -9 9 -9 12 0 12 16 0 15 37 0 43 -22
8 -48 -13 -48 -38 0 -14 -5 -25 -11 -25 -6 0 -8 7 -5 16 3 9 6 24 6 34 0 11
14 34 31 51 l31 32 -36 35 c-33 32 -40 34 -78 28 l-42 -7 22 20 c13 10 19 22
13 25 -5 3 -12 0 -15 -6 -3 -10 -8 -9 -15 3 -6 9 -23 20 -38 24 -15 3 -31 12
-35 18 -4 6 -10 8 -15 4 -4 -5 -2 -11 5 -16 6 -4 13 -20 16 -36 2 -17 1 -23
-1 -15 -8 24 -43 70 -54 70 -5 0 -9 -8 -9 -17 0 -14 -4 -12 -16 7 -29 45 -147
133 -229 169 -176 80 -508 204 -555 208 -38 3 -50 -1 -76 -24z"/>
<path d="M19942 2183 c4 -22 71 -55 331 -167 283 -121 255 -124 427 44 73 72
131 132 129 135 -5 4 -26 -15 -193 -174 -77 -73 -78 -73 -124 -69 -26 3 -83
21 -127 41 -44 19 -144 63 -223 98 -79 34 -159 72 -178 85 -42 29 -46 29 -42
7z"/>
<path d="M24032 2003 c4 -22 45 -43 248 -129 248 -105 783 -334 805 -344 68
-31 134 -59 238 -100 150 -60 161 -59 238 32 89 106 114 147 101 160 -9 9 -12
9 -12 -2 0 -17 -133 -180 -157 -194 -12 -6 -14 -5 -8 4 6 10 4 12 -7 7 -9 -3
-33 -1 -54 5 -22 6 -50 11 -64 13 -37 4 -80 16 -109 31 -14 8 -32 14 -39 14
-7 0 -10 5 -6 12 4 6 3 8 -3 5 -6 -4 -48 10 -94 29 -46 20 -98 41 -116 47 -18
5 -30 14 -27 18 2 4 -1 11 -7 15 -8 4 -9 3 -5 -4 10 -16 -3 -14 -41 6 -18 9
-31 21 -30 26 1 4 -27 19 -63 32 -36 14 -72 27 -80 31 -8 3 -19 7 -25 9 -5 1
-23 8 -40 15 -16 7 -32 13 -35 14 -3 1 -18 7 -33 13 -16 7 -33 12 -38 12 -11
0 -268 106 -359 147 -128 59 -160 76 -160 84 0 5 -5 9 -11 9 -6 0 -9 -8 -7
-17z"/>
<path d="M22920 1968 c0 -24 13 -31 180 -103 85 -37 191 -83 235 -102 211 -93
210 -92 285 -15 104 108 193 212 186 219 -3 4 -30 -20 -58 -53 -29 -32 -82
-90 -119 -128 -62 -65 -69 -69 -107 -68 -23 1 -91 23 -159 52 -65 27 -121 50
-125 50 -3 0 -41 16 -85 36 -43 20 -94 42 -113 50 -57 24 -94 46 -107 62 -12
14 -13 14 -13 0z"/>
<path d="M21802 1922 c4 -30 11 -33 273 -147 121 -52 229 -100 239 -106 11 -6
45 -13 76 -16 l56 -5 125 132 c110 116 144 160 125 160 -3 0 -23 -19 -44 -42
-20 -24 -76 -83 -124 -133 l-87 -91 -53 2 c-36 1 -74 12 -119 33 -36 17 -69
31 -73 31 -3 0 -25 9 -49 19 -23 10 -100 45 -172 76 -74 33 -140 69 -153 84
-23 26 -23 26 -20 3z"/>
<path d="M20670 1870 c0 -13 13 -26 38 -39 63 -32 474 -213 511 -225 73 -24
88 -15 230 128 111 114 146 156 127 156 -3 0 -137 -137 -217 -222 -28 -29 -45
-38 -81 -42 -32 -4 -51 -2 -60 7 -7 8 -19 12 -26 9 -6 -2 -12 1 -12 8 0 6 -4
9 -9 6 -5 -3 -22 1 -37 9 -16 8 -35 15 -41 15 -7 0 -13 4 -13 9 0 5 -15 13
-32 16 -18 4 -63 22 -100 40 -36 18 -69 31 -72 27 -3 -3 -6 0 -6 6 0 7 -7 12
-15 12 -8 0 -23 4 -33 9 -9 6 -39 20 -66 33 -27 13 -54 31 -60 41 -14 23 -26
22 -26 -3z"/>
<path d="M19472 1768 c-20 -25 -3 -46 62 -77 123 -58 359 -163 431 -192 121
-48 116 -50 281 113 79 78 144 147 144 154 0 8 -64 -49 -142 -126 -78 -76
-146 -136 -151 -133 -6 3 -7 2 -4 -4 4 -6 -8 -10 -29 -11 -32 -1 -69 13 -339
131 -145 63 -230 112 -235 136 -5 20 -7 22 -18 9z"/>
<path d="M23687 1654 c-15 -16 19 -46 91 -80 185 -86 522 -224 548 -224 33 0
90 55 232 226 41 51 52 74 32 74 -5 0 -10 -4 -10 -8 0 -5 -30 -43 -67 -84 -38
-41 -88 -98 -112 -126 -33 -38 -47 -49 -54 -40 -6 9 -10 10 -13 2 -12 -29
-115 4 -359 116 -33 15 -100 43 -149 63 -49 21 -99 49 -110 62 -12 14 -25 23
-29 19z"/>
<path d="M22555 1610 c-10 -16 13 -47 47 -63 222 -104 548 -237 582 -237 22 0
44 8 60 23 39 35 236 260 236 269 0 13 -18 9 -27 -6 -8 -13 -81 -95 -184 -206
-40 -42 -50 -48 -78 -45 -18 2 -29 0 -26 -5 10 -16 -9 -12 -81 19 -38 15 -125
52 -194 80 -209 87 -310 140 -310 162 0 20 -15 26 -25 9z"/>
<path d="M21425 1557 c-5 -13 -1 -25 12 -38 28 -28 540 -251 590 -257 27 -3
48 1 63 11 35 24 260 270 260 284 0 23 -14 13 -54 -37 -21 -27 -43 -47 -49
-43 -6 3 -7 1 -3 -5 4 -7 3 -12 -1 -12 -5 0 -17 -14 -27 -30 -9 -17 -22 -28
-27 -24 -5 3 -8 2 -7 -3 2 -4 -18 -29 -43 -54 -44 -42 -50 -45 -95 -44 -61 3
-114 15 -114 26 0 5 -6 9 -14 9 -8 0 -27 5 -43 12 -15 6 -34 10 -42 9 -7 -1
-10 2 -7 8 4 5 -2 10 -11 10 -23 -1 -86 23 -106 39 -8 7 -28 15 -43 18 -16 3
-31 9 -34 14 -3 5 -17 12 -33 15 -15 4 -24 12 -20 18 3 6 1 7 -6 3 -16 -10
-53 3 -45 16 4 6 -1 8 -15 3 -15 -4 -21 -3 -19 7 2 7 -4 13 -12 13 -17 0 -35
14 -42 35 -5 12 -7 12 -13 -3z"/>
<path d="M21130 1450 c-1 -22 -89 -112 -102 -104 -7 4 -8 2 -4 -5 8 -12 -155
-181 -175 -181 -5 0 -8 4 -5 9 4 5 -3 7 -15 4 -16 -4 -17 -8 -7 -14 22 -14 -6
-11 -59 7 -52 18 -242 100 -392 170 -51 24 -97 44 -101 44 -13 0 -40 36 -40
53 0 9 -4 17 -10 17 -20 0 -10 -50 13 -65 13 -8 136 -65 273 -126 183 -82 263
-113 302 -117 l53 -5 135 134 c146 144 162 165 145 182 -8 8 -11 7 -11 -3z"/>
<path d="M19980 1392 c0 -20 -267 -288 -277 -278 -3 3 -13 0 -21 -7 -13 -10
-14 -9 -7 3 6 12 5 13 -6 3 -25 -24 -58 -14 -248 74 -41 19 -98 44 -125 56
-88 37 -196 93 -191 99 3 3 -1 11 -10 18 -8 7 -15 20 -15 28 0 14 -2 14 -17
-1 -37 -37 7 -64 364 -221 259 -115 243 -116 386 20 163 154 187 181 187 204
0 11 -4 20 -10 20 -5 0 -10 -8 -10 -18z"/>
<path d="M25681 1323 c-35 -41 -75 -89 -244 -294 -16 -19 -40 -49 -55 -68 -15
-18 -76 -92 -135 -165 -60 -72 -125 -151 -145 -176 -21 -24 -73 -88 -117 -141
-44 -53 -116 -140 -160 -194 -44 -54 -102 -124 -128 -156 -27 -33 -53 -57 -58
-54 -5 4 -6 0 -4 -8 3 -7 -3 -22 -15 -32 -27 -25 -25 -35 8 -35 22 0 40 15 90
75 34 41 62 79 62 84 0 6 6 14 13 18 13 8 92 102 194 232 28 36 49 70 46 75
-3 5 -2 6 4 3 5 -3 18 6 29 20 10 15 24 31 29 37 6 6 37 45 70 86 33 41 63 77
67 78 4 2 8 10 8 18 0 8 4 14 10 14 5 0 20 17 33 38 14 20 55 73 92 117 37 44
76 90 86 103 10 12 19 25 19 27 0 3 18 25 40 47 22 23 40 46 40 50 0 10 1 11
61 78 40 44 119 154 119 164 0 17 -22 1 -59 -41z"/>
<path d="M24488 1334 c-16 -15 -7 -54 15 -68 12 -8 92 -45 176 -81 85 -36 169
-72 185 -80 56 -25 221 -93 244 -100 52 -15 76 2 190 140 100 120 132 175 102
175 -5 0 -10 -4 -10 -10 0 -5 -8 -18 -17 -28 -18 -19 -26 -27 -103 -122 -87
-106 -91 -108 -145 -111 -85 -3 -95 -1 -89 19 4 12 3 13 -3 4 -9 -12 -31 -7
-108 28 -83 37 -136 60 -140 60 -3 0 -33 13 -67 29 -35 16 -91 42 -125 57 -35
16 -63 32 -63 37 0 4 -5 5 -12 1 -8 -5 -9 -2 -5 10 4 9 3 14 -2 11 -5 -3 -11
4 -13 16 -2 11 -6 17 -10 13z"/>
<path d="M23341 1276 c-12 -14 -11 -19 5 -37 20 -22 46 -35 264 -129 74 -32
176 -76 226 -98 50 -21 103 -42 118 -46 65 -16 76 -7 315 277 11 13 12 20 3
29 -8 8 -12 8 -12 2 0 -6 -28 -40 -61 -75 -34 -35 -69 -75 -78 -89 -9 -14 -28
-36 -44 -48 -15 -13 -25 -28 -22 -32 9 -15 -18 -24 -65 -22 -33 2 -41 0 -30
-7 19 -14 11 -14 -31 0 -37 12 -51 17 -124 47 -27 11 -65 26 -82 34 -18 7 -33
16 -33 20 0 5 -9 8 -20 8 -11 0 -65 20 -121 45 -183 83 -191 87 -177 96 9 6 9
9 1 9 -6 0 -13 7 -15 17 -3 15 -4 15 -17 -1z"/>
<path d="M22195 1228 c-4 -15 -4 -32 0 -39 9 -14 133 -72 395 -185 150 -64
206 -84 241 -84 l46 0 126 141 c72 79 127 150 127 161 0 10 -4 16 -10 13 -5
-3 -10 -12 -10 -18 0 -7 -20 -30 -44 -52 -25 -22 -43 -42 -42 -45 2 -3 -6 -14
-17 -25 -12 -12 -17 -14 -13 -5 4 8 1 6 -6 -4 -7 -10 -23 -28 -35 -39 -13 -11
-23 -27 -23 -34 0 -8 -4 -12 -9 -8 -5 3 -13 0 -17 -6 -5 -8 -3 -9 7 -4 8 5 2
-3 -12 -17 -43 -41 -70 -33 -374 99 -88 39 -191 85 -230 102 -38 18 -72 32
-75 31 -3 -1 -8 9 -11 22 -6 23 -6 23 -14 -4z"/>
<path d="M20972 1102 c-11 -20 -10 -25 11 -45 34 -31 553 -259 603 -264 35 -5
46 -1 78 28 68 59 256 268 256 284 0 22 -14 18 -25 -7 -6 -13 -17 -22 -24 -20
-9 2 -11 -3 -7 -13 3 -9 2 -14 -2 -11 -11 6 -50 -26 -54 -44 -3 -15 -32 -47
-65 -72 -10 -7 -37 -34 -60 -60 -23 -25 -43 -45 -45 -43 -2 2 -24 -1 -50 -6
-54 -9 -89 -3 -66 13 9 7 7 8 -8 3 -19 -5 -127 38 -324 127 -187 86 -196 92
-202 128 l-3 25 -13 -23z"/>
<path d="M19810 1046 c-14 -27 -13 -30 12 -49 14 -10 104 -55 199 -99 301
-137 354 -158 406 -158 l48 0 143 146 c127 130 165 184 132 184 -5 0 -10 -8
-10 -19 0 -22 -23 -44 -35 -33 -5 4 -5 2 -2 -4 3 -6 -50 -66 -119 -135 -98
-96 -127 -120 -134 -109 -7 12 -12 12 -22 2 -15 -15 -58 -16 -58 -1 0 5 -4 8
-10 4 -5 -3 -17 -1 -27 4 -10 6 -52 24 -93 42 -41 17 -102 43 -135 58 -33 15
-85 38 -115 52 -134 59 -155 73 -161 110 l-5 34 -14 -29z"/>
<path d="M19580 1005 c0 -22 -293 -311 -298 -294 -2 5 -19 7 -38 3 -23 -4 -42
-1 -59 10 -13 9 -31 16 -40 16 -8 0 -15 5 -15 10 0 6 -3 9 -7 9 -24 -4 -53 2
-49 10 6 9 -36 31 -60 31 -8 0 -25 6 -37 14 -12 8 -64 33 -115 56 -124 55
-202 101 -202 118 0 12 -3 12 -15 2 -20 -16 -19 -33 3 -53 31 -28 512 -247
572 -260 48 -10 89 18 235 161 80 78 145 146 145 150 0 4 -5 14 -10 22 -8 12
-10 12 -10 -5z"/>
<path d="M25070 918 c0 -6 -17 -28 -38 -47 -21 -20 -42 -43 -48 -52 -5 -9 -30
-40 -56 -70 -25 -30 -64 -75 -85 -100 -21 -25 -55 -66 -75 -90 -20 -24 -76
-91 -123 -149 -141 -170 -139 -168 -188 -160 -57 9 -90 23 -317 125 -69 31
-143 62 -165 70 -76 27 -162 79 -157 95 4 12 1 12 -13 -1 -21 -20 -13 -51 18
-72 38 -25 570 -259 610 -268 21 -5 48 -7 61 -3 15 3 67 57 133 137 59 72 122
147 139 166 17 20 97 116 177 215 132 160 167 216 137 216 -5 0 -10 -5 -10
-12z"/>
<path d="M22987 893 c-14 -13 -7 -40 16 -60 29 -27 571 -263 618 -270 20 -3
45 0 57 6 22 12 262 286 262 299 0 4 -4 14 -9 21 -8 12 -11 9 -16 -12 -4 -14
-14 -32 -23 -39 -13 -11 -15 -11 -8 2 4 8 -2 4 -13 -9 -12 -12 -18 -28 -14
-34 3 -6 1 -7 -5 -3 -6 3 -23 -10 -39 -30 -15 -20 -55 -65 -88 -99 -55 -58
-63 -63 -95 -59 -34 4 -139 47 -305 125 -44 20 -107 48 -140 62 -33 14 -86 37
-118 51 -32 15 -56 22 -52 16 3 -5 1 -10 -6 -10 -7 0 -9 10 -7 25 5 24 -2 32
-15 18z"/>
<path d="M20582 707 c-8 -9 -11 -24 -8 -35 6 -18 125 -82 276 -147 41 -18 100
-44 130 -58 158 -71 188 -82 227 -82 39 0 48 6 109 65 105 103 224 238 224
255 0 8 -4 15 -10 15 -5 0 -10 -5 -10 -11 0 -6 -21 -32 -47 -58 -27 -27 -85
-87 -131 -134 -73 -76 -88 -87 -133 -96 -47 -10 -56 -9 -119 19 -38 16 -71 30
-75 30 -7 0 -30 10 -248 114 -65 31 -122 56 -126 56 -14 0 -39 35 -43 59 -3
22 -4 23 -16 8z"/>
<path d="M20210 508 c-97 -98 -155 -149 -175 -154 -33 -8 -85 8 -199 61 -39
18 -123 56 -186 84 -63 29 -122 56 -130 61 -8 6 -32 17 -53 26 -24 11 -39 25
-43 41 -7 28 -28 26 -32 -4 -4 -27 19 -41 268 -156 280 -129 336 -150 374
-143 23 5 69 44 180 155 81 81 146 154 144 162 -2 8 -62 -46 -148 -133z"/>
<path d="M18945 375 c-174 -167 -192 -177 -277 -146 -171 62 -485 217 -511
253 -21 29 -37 29 -37 -1 0 -28 26 -45 170 -111 74 -34 158 -72 185 -85 238
-110 253 -115 302 -88 61 34 348 323 321 323 -2 0 -70 -65 -153 -145z"/>
<path d="M20177 283 c-32 -31 28 -68 346 -212 107 -49 167 -71 187 -69 24 2 4
14 -113 68 -284 129 -385 179 -399 199 -8 12 -18 18 -21 14z"/>
</g>
</svg>
